<svg width="39" height="38" viewBox="0 0 39 38" fill="none" xmlns="http://www.w3.org/2000/svg">
<g clip-path="url(#clip0)">
<path d="M14.0217 17.4222H16.2364V25.2898C16.2364 25.4451 16.3822 25.571 16.5623 25.571H20.3173C20.4972 25.571 20.6431 25.4451 20.6431 25.2898V17.4593H23.1891C23.3547 17.4593 23.494 17.3521 23.5129 17.2102L23.8995 14.3138C23.9102 14.2341 23.8809 14.1542 23.8191 14.0945C23.7572 14.0346 23.6688 14.0004 23.5758 14.0004H20.6433V12.1847C20.6433 11.6374 20.9848 11.3599 21.6585 11.3599C21.7544 11.3599 23.5758 11.3599 23.5758 11.3599C23.7559 11.3599 23.9017 11.234 23.9017 11.0787V8.41999C23.9017 8.26465 23.7559 8.1388 23.5758 8.1388H20.9334C20.9148 8.13801 20.8733 8.13672 20.8123 8.13672C20.3538 8.13672 18.7602 8.21439 17.5013 9.21376C16.1064 10.3212 16.3003 11.6473 16.3467 11.8772V14.0003H14.0217C13.8416 14.0003 13.6958 14.1262 13.6958 14.2815V17.1409C13.6958 17.2963 13.8417 17.4222 14.0217 17.4222Z" fill="white"/>
<path d="M19.3923 36.6138C29.5661 36.6138 37.8135 28.548 37.8135 18.5984C37.8135 8.64877 29.5661 0.583008 19.3923 0.583008C9.21862 0.583008 0.971191 8.64877 0.971191 18.5984C0.971191 28.548 9.21862 36.6138 19.3923 36.6138Z" stroke="#DBDBDB"/>
</g>
<defs>
<clipPath id="clip0">
<rect width="38.0308" height="37.1931" fill="white" transform="translate(0.376953)"/>
</clipPath>
</defs>
</svg>
