<svg width="39" height="38" viewBox="0 0 39 38" fill="none" xmlns="http://www.w3.org/2000/svg">
<g clip-path="url(#clip0)">
<path fill-rule="evenodd" clip-rule="evenodd" d="M19.7878 14.7227C17.5998 14.7227 15.8262 16.4572 15.8262 18.597C15.8262 20.7367 17.5998 22.4712 19.7878 22.4712C21.9756 22.4712 23.7493 20.7367 23.7493 18.597C23.7493 16.4572 21.9756 14.7227 19.7878 14.7227ZM17.4109 18.597C17.4109 19.8809 18.475 20.9216 19.7878 20.9216C21.1006 20.9216 22.1647 19.8809 22.1647 18.597C22.1647 17.3132 21.1006 16.2724 19.7878 16.2724C18.475 16.2724 17.4109 17.3132 17.4109 18.597Z" fill="white"/>
<path d="M24.5432 13.1719C24.1056 13.1719 23.751 13.5187 23.751 13.9467C23.751 14.3746 24.1056 14.7215 24.5432 14.7215C24.9808 14.7215 25.3356 14.3746 25.3356 13.9467C25.3356 13.5187 24.9808 13.1719 24.5432 13.1719Z" fill="white"/>
<path fill-rule="evenodd" clip-rule="evenodd" d="M14.2415 10.0742C12.4912 10.0742 11.0723 11.4619 11.0723 13.1736V24.0216C11.0723 25.7334 12.4912 27.121 14.2415 27.121H25.3338C27.0842 27.121 28.5031 25.7334 28.5031 24.0216V13.1736C28.5031 11.4619 27.0842 10.0742 25.3338 10.0742H14.2415ZM25.3338 11.6239H14.2415C13.3663 11.6239 12.6569 12.3177 12.6569 13.1736V24.0216C12.6569 24.8775 13.3663 25.5713 14.2415 25.5713H25.3338C26.209 25.5713 26.9185 24.8775 26.9185 24.0216V13.1736C26.9185 12.3177 26.209 11.6239 25.3338 11.6239Z" fill="white"/>
<path d="M19.7884 36.6138C29.9622 36.6138 38.2096 28.548 38.2096 18.5984C38.2096 8.64877 29.9622 0.583008 19.7884 0.583008C9.61465 0.583008 1.36719 8.64877 1.36719 18.5984C1.36719 28.548 9.61465 36.6138 19.7884 36.6138Z" stroke="#DBDBDB"/>
</g>
<defs>
<clipPath id="clip0">
<rect width="38.0309" height="37.1931" fill="white" transform="translate(0.772949)"/>
</clipPath>
</defs>
</svg>
