<svg width="201" height="32" viewBox="0 0 201 32" fill="none" xmlns="http://www.w3.org/2000/svg">
<path d="M23.4199 0.721685C16.9502 0.718403 10.2 2.1461 3.38693 3.99799C2.52179 4.16866 1.67759 4.72333 1.23121 5.40928C0.820832 6.05584 0.671757 6.70487 0.543619 7.38507C-0.118006 11.0183 -0.037606 14.5859 0.099744 18.5391C0.129894 19.4441 0.267244 20.5166 0.698557 21.1689C1.14913 21.8277 1.92131 22.2462 2.84339 22.3832C4.02143 22.5525 5.20315 22.6961 6.3877 22.814L6.12639 29.9508C6.08619 30.5186 6.36927 30.9904 6.72102 31.262C7.03592 31.4967 7.38683 31.6009 7.74696 31.6271C8.46721 31.6805 9.31225 31.3785 9.73183 30.5957C11.5701 27.1299 12.7234 25.5996 15.0223 23.2973C21.0171 23.4417 26.2507 23.1151 32.176 22.686C34.2706 22.6327 35.7086 20.9547 36.0888 19.6148C37.2253 16.1424 37.402 11.856 37.5226 7.52292C37.5737 5.80558 36.9657 4.11943 35.8895 3.22835C34.866 2.41522 33.6266 2.12066 32.4909 1.81871C29.336 1.11881 26.1803 0.743019 23.4199 0.721685ZM32.0378 3.43758C33.1751 3.74035 34.1776 4.03163 34.8099 4.53461C35.8652 5.63328 35.83 6.36435 35.8149 7.54999C35.696 11.7527 35.49 15.8314 34.5218 18.9223C34.1048 20.0751 33.3778 20.8956 32.0043 21.0195C25.9676 21.4569 20.7299 21.7949 14.6622 21.6259C14.544 21.6222 14.4264 21.6423 14.3165 21.6849C14.2066 21.7275 14.1067 21.7918 14.0232 21.8737C11.4738 24.3959 10.1698 26.1486 8.22685 29.813C8.18162 29.8967 8.08363 29.9475 7.96303 29.9566C7.8818 29.9525 7.84913 29.8909 7.84411 29.8351L8.10708 22.096C8.123 21.6784 7.77125 21.2796 7.34747 21.2345C5.93052 21.1019 4.51743 20.9323 3.10972 20.7258C2.50169 20.6347 2.27724 20.4714 2.11058 20.2286C1.82081 19.5516 1.82751 19.1332 1.80489 18.4825C1.66922 14.5646 1.60222 11.1406 2.21611 7.73379C2.27306 7.22999 2.46568 6.71471 2.67003 6.28394C3.00838 5.76538 3.52679 5.68907 4.04688 5.54794C10.71 3.74528 17.2291 2.39717 23.3663 2.39307C26.3746 2.49974 29.5337 2.79512 32.0378 3.43758V3.43758ZM9.02415 10.0755C8.10625 11.1529 8.19753 12.6158 8.9069 13.5955C9.27707 14.1084 9.85495 14.5211 10.5584 14.6146C11.4722 14.6885 12.0517 14.3258 12.6773 13.909C13.8105 12.944 13.9252 11.2604 13.0634 10.0444C12.6246 9.42487 11.9227 9.05317 11.2058 9.02692C10.2243 9.03676 9.55763 9.46589 9.02415 10.0747V10.0755ZM18.9535 9.19594C18.039 9.22466 17.2995 9.84497 16.8481 10.5145C16.3313 11.28 16.0298 12.2384 16.4477 13.1779C17.2517 14.9855 20.0297 14.9633 21.1377 13.1262C21.6486 12.2794 21.518 11.317 21.1377 10.6187C20.7592 9.92128 20.1863 9.35266 19.353 9.2222C19.221 9.20093 19.0873 9.19214 18.9535 9.19594V9.19594ZM27.0145 9.36579C26.7297 9.35922 26.4366 9.38548 26.1619 9.45687C25.0631 9.74404 24.1276 10.855 24.2692 12.277C24.3412 12.9925 24.677 13.6899 25.2825 14.1707C25.888 14.6507 26.7674 14.8657 27.6945 14.6794C28.7598 14.4661 29.4198 13.6251 29.6401 12.8128C29.8603 12.0005 29.805 11.1726 29.2933 10.5014C29.0271 10.1545 28.6834 9.87187 28.2886 9.67506C27.8938 9.47824 27.4583 9.37246 27.0153 9.36579H27.0145ZM11.1313 10.6975C11.3365 10.6991 11.4981 10.7631 11.6648 10.9978C12.0375 11.5246 11.9336 12.3229 11.5576 12.6429C11.1832 12.9629 10.9496 12.9908 10.7854 12.9695C10.6213 12.9473 10.4546 12.8366 10.3055 12.6298C10.0208 12.2359 9.93702 11.5992 10.3114 11.1447C10.5107 10.8854 10.8767 10.7237 11.1321 10.6975H11.1313ZM19.0733 10.8805C19.1051 10.8854 19.4619 11.088 19.6328 11.4023C19.8036 11.7166 19.8354 12.0087 19.673 12.277C19.1897 13.0778 18.1621 12.8612 18.0063 12.5125C17.9477 12.3795 17.9921 11.8454 18.2743 11.4294C18.5549 11.0117 18.9083 10.855 19.0733 10.8796V10.8805ZM27.9207 11.4942C27.9726 11.5623 28.099 12.0193 28.0011 12.382C27.9022 12.7447 27.7414 12.9687 27.3478 13.0474C26.8436 13.1492 26.5606 13.0474 26.3487 12.8776C26.1359 12.7094 25.9927 12.4247 25.9617 12.1203C25.8864 11.3654 26.1627 11.1906 26.6016 11.0757C27.1125 10.9527 27.6903 11.1676 27.9207 11.4942V11.4942Z" fill="white"/>
<path d="M48.248 4.09947C48.2614 3.88613 48.341 3.69413 48.4884 3.52429C48.5601 3.44102 48.6503 3.37485 48.752 3.33078C48.8537 3.28671 48.9644 3.2659 49.0755 3.26993H54.7923C54.9849 3.26993 55.1834 3.3487 55.3886 3.50542C55.4847 3.57304 55.5629 3.6623 55.6165 3.76567C55.6701 3.86904 55.6977 3.98351 55.6968 4.09947V13.0373H65.2619V4.09947C65.2619 3.87301 65.3422 3.67854 65.5022 3.51526C65.663 3.35116 65.8707 3.26911 66.1278 3.26911H71.7675C72.0238 3.26911 72.2483 3.33229 72.4409 3.45783C72.6335 3.58419 72.7298 3.78521 72.7298 4.06172V30.4412C72.7298 30.7177 72.6461 30.9253 72.4786 31.0632C72.3128 31.2018 72.0942 31.2707 71.8253 31.2707H66.1278C65.8715 31.2707 65.663 31.2018 65.5022 31.0632C65.3422 30.9253 65.2619 30.7185 65.2619 30.4412V19.7311H55.6968V30.4412C55.6968 30.7054 55.6097 30.9089 55.4371 31.0541C55.2638 31.1985 55.0293 31.2707 54.7336 31.2707H49.0755C48.537 31.2707 48.2614 31.0254 48.248 30.5356V4.09947ZM100.906 30.9507C100.739 31.0886 100.562 31.1764 100.377 31.2141C100.203 31.2508 100.026 31.2701 99.8481 31.2716H96.9419C96.7108 31.2716 96.5115 31.2305 96.3448 31.1485C96.1773 31.0664 96.0366 30.9565 95.921 30.8186C95.8028 30.6755 95.7058 30.5166 95.6329 30.3468C95.5554 30.1695 95.491 29.9868 95.4403 29.8004L94.844 27.3864C94.6514 27.7762 94.3725 28.2193 94.0065 28.7157C93.6105 29.2425 93.1408 29.712 92.6112 30.1105C92.0468 30.5454 91.3726 30.9097 90.5903 31.2051C89.8073 31.5005 88.9095 31.6482 87.8953 31.6482C86.433 31.6482 85.1047 31.3717 83.9113 30.8186C82.7429 30.2838 81.7033 29.5125 80.8611 28.5557C80.0211 27.6006 79.3695 26.4847 78.9081 25.208C78.4458 23.9329 78.2146 22.5717 78.2146 21.1267V8.77557C78.2146 8.29803 78.321 7.937 78.5329 7.69167C78.7439 7.44634 79.0806 7.32408 79.5429 7.32408H83.9883C84.5411 7.32408 84.9188 7.41434 85.124 7.59731C85.3292 7.77947 85.4322 8.13475 85.4322 8.66234V20.9372C85.4322 21.4787 85.5578 21.9907 85.8074 22.4748C86.0578 22.959 86.3878 23.3856 86.799 23.7565C87.2094 24.1274 87.6742 24.4203 88.1943 24.6336C88.7135 24.8469 89.2428 24.9536 89.7822 24.9536C90.2436 24.9536 90.7218 24.8469 91.216 24.6336C91.7133 24.4175 92.174 24.1281 92.5819 23.7754C92.999 23.4176 93.3424 22.9959 93.612 22.5118C93.8817 22.0277 94.0157 21.5157 94.0157 20.9758V8.71895C94.0157 8.50562 94.0576 8.29229 94.1413 8.07813C94.2251 7.8648 94.3499 7.7007 94.5165 7.58747C94.6832 7.48736 94.8407 7.41844 94.9881 7.3807C95.1355 7.34295 95.3063 7.32326 95.4981 7.32326H99.8481C100.399 7.32326 100.797 7.45618 101.041 7.71957C101.284 7.98377 101.407 8.33577 101.407 8.77557V29.8759C101.407 30.1138 101.352 30.3345 101.243 30.5356C101.134 30.7366 100.984 30.8941 100.791 31.0065L100.906 30.9507V30.9507ZM123.251 28.3481C122.904 28.6878 122.523 29.0521 122.106 29.4418C121.689 29.8316 121.23 30.1967 120.73 30.5356C120.227 30.8766 119.684 31.1583 119.114 31.3749C118.518 31.5983 117.884 31.7101 117.246 31.7048C115.502 31.7048 113.895 31.3848 112.425 30.7432C110.992 30.1272 109.702 29.2322 108.633 28.1126C107.575 27 106.747 25.6896 106.151 24.1807C105.554 22.6726 105.256 21.0513 105.256 19.3159C105.256 17.5682 105.554 15.9436 106.151 14.442C106.747 12.9405 107.575 11.6326 108.633 10.52C109.701 9.40141 110.991 8.50943 112.425 7.89926C113.895 7.26418 115.502 6.94665 117.246 6.94665C117.952 6.94665 118.597 7.04757 119.181 7.24859C119.744 7.43978 120.281 7.69945 120.778 8.02152C121.26 8.33577 121.702 8.69106 122.106 9.08654C122.51 9.48285 122.892 9.86931 123.251 10.2467V1.6289C123.251 1.22685 123.377 0.887981 123.626 0.611468C123.877 0.334135 124.252 0.196289 124.753 0.196289H129.083C129.25 0.196289 129.426 0.230751 129.612 0.299674C129.798 0.369417 129.968 0.466238 130.123 0.592597C130.276 0.718135 130.401 0.869109 130.497 1.0447C130.594 1.22111 130.642 1.41557 130.642 1.6289V29.8193C130.642 30.7875 130.123 31.2716 129.083 31.2716H125.311C125.054 31.2716 124.855 31.2387 124.714 31.1764C124.575 31.1149 124.452 31.0212 124.357 30.9032C124.25 30.7648 124.163 30.6127 124.098 30.4511C124.007 30.2382 123.911 30.0275 123.81 29.8193L123.251 28.3481V28.3481ZM112.184 19.3159C112.178 20.1088 112.311 20.8969 112.579 21.6453C112.842 22.3674 113.217 22.9934 113.705 23.521C114.198 24.0527 114.797 24.4795 115.466 24.7747C116.153 25.0833 116.913 25.2367 117.747 25.2367C118.568 25.2367 119.341 25.0923 120.066 24.8035C120.771 24.527 121.414 24.1203 121.961 23.6055C122.505 23.09 122.946 22.4794 123.261 21.8053C123.588 21.1136 123.771 20.3719 123.81 19.5801V19.3159C123.813 18.5268 123.656 17.745 123.347 17.016C123.049 16.3012 122.615 15.6486 122.068 15.0927C121.519 14.5375 120.866 14.0924 120.143 13.7823C119.388 13.4583 118.571 13.2944 117.747 13.3015C116.913 13.3015 116.153 13.4615 115.466 13.7823C114.779 14.1023 114.193 14.5397 113.705 15.0927C113.21 15.6588 112.828 16.3113 112.579 17.016C112.315 17.7549 112.181 18.5328 112.185 19.3159H112.184ZM152.987 28.3481C152.641 28.6878 152.259 29.0521 151.842 29.4418C151.425 29.8316 150.966 30.1967 150.466 30.5356C149.962 30.8766 149.42 31.1583 148.849 31.3749C148.253 31.5983 147.62 31.7101 146.982 31.7048C145.237 31.7048 143.63 31.3848 142.161 30.7432C140.728 30.1273 139.438 29.2323 138.369 28.1126C137.311 27 136.483 25.6896 135.887 24.1807C135.29 22.6726 134.991 21.0513 134.991 19.3159C134.991 17.5682 135.29 15.9436 135.887 14.442C136.483 12.9405 137.31 11.6326 138.369 10.52C139.437 9.40132 140.727 8.50933 142.161 7.89926C143.63 7.26418 145.237 6.94665 146.982 6.94665C147.688 6.94665 148.333 7.04757 148.916 7.24859C149.48 7.43978 150.016 7.69945 150.513 8.02152C150.995 8.33577 151.437 8.69106 151.842 9.08654C152.246 9.48285 152.627 9.86931 152.987 10.2467V1.6289C152.987 1.22685 153.112 0.887981 153.362 0.611468C153.613 0.334135 153.987 0.196289 154.488 0.196289H158.818C158.986 0.196289 159.161 0.230751 159.347 0.299674C159.534 0.369417 159.704 0.466238 159.858 0.592597C160.012 0.718135 160.137 0.869109 160.233 1.0447C160.329 1.22111 160.378 1.41557 160.378 1.6289V29.8193C160.378 30.7875 159.858 31.2716 158.818 31.2716H155.046C154.79 31.2716 154.59 31.2387 154.45 31.1764C154.31 31.1148 154.188 31.0211 154.094 30.9032C153.987 30.7648 153.899 30.6127 153.834 30.4511C153.743 30.2382 153.647 30.0275 153.545 29.8193L152.987 28.3481H152.987ZM141.92 19.3159C141.913 20.1088 142.047 20.8969 142.314 21.6453C142.578 22.3674 142.953 22.9934 143.441 23.521C143.934 24.0528 144.533 24.4796 145.202 24.7747C145.889 25.0833 146.648 25.2367 147.483 25.2367C148.303 25.2367 149.076 25.0923 149.802 24.8035C150.506 24.5271 151.15 24.1204 151.698 23.6055C152.241 23.0898 152.681 22.4793 152.996 21.8053C153.323 21.1136 153.507 20.3719 153.545 19.5801V19.3159C153.548 18.5268 153.391 17.745 153.083 17.016C152.785 16.3012 152.35 15.6486 151.803 15.0927C151.255 14.5375 150.601 14.0924 149.879 13.7823C149.123 13.4583 148.307 13.2944 147.483 13.3015C146.648 13.3015 145.888 13.4615 145.202 13.7823C144.515 14.1023 143.928 14.5397 143.441 15.0927C142.945 15.6588 142.563 16.3113 142.314 17.016C142.05 17.7549 141.917 18.5328 141.921 19.3159H141.92ZM165.498 1.64778C165.498 1.24572 165.6 0.906853 165.805 0.63034C166.011 0.353007 166.364 0.215161 166.864 0.215161H171.579C171.708 0.215161 171.843 0.249622 171.984 0.318545C172.132 0.392873 172.265 0.492012 172.378 0.611468C172.5 0.737007 172.602 0.887981 172.686 1.06357C172.77 1.23998 172.812 1.43444 172.812 1.64778V29.8193C172.812 30.2968 172.674 30.6578 172.397 30.9032C172.122 31.1485 171.766 31.2707 171.329 31.2707H166.864C166.364 31.2707 166.011 31.1477 165.805 30.9032C165.6 30.6578 165.498 30.296 165.498 29.8193V1.64778ZM197.909 28.4047C196.793 29.4147 195.503 30.2223 194.099 30.7899C192.676 31.3641 191.152 31.6558 189.614 31.6482C187.855 31.6482 186.194 31.3339 184.629 30.7046C183.099 30.0988 181.701 29.2127 180.51 28.0937C179.324 26.9727 178.37 25.6376 177.7 24.1618C177.007 22.6537 176.661 21.0135 176.661 19.2404C176.661 18.1343 176.798 17.0627 177.075 16.0256C177.342 15.0109 177.736 14.0325 178.249 13.1128C178.756 12.2076 179.376 11.3682 180.096 10.6143C180.814 9.85916 181.633 9.20255 182.531 8.66234C183.444 8.11518 184.428 7.69021 185.456 7.39875C186.538 7.09314 187.659 6.94089 188.785 6.94665C189.851 6.94665 190.883 7.08531 191.884 7.36183C192.885 7.63834 193.826 8.02808 194.704 8.53024C195.583 9.03321 196.387 9.63711 197.119 10.3411C197.841 11.0334 198.475 11.809 199.006 12.6509C199.532 13.4866 199.943 14.3869 200.228 15.3282C200.516 16.2775 200.661 17.2547 200.661 18.2599C200.661 18.9138 200.651 19.448 200.632 19.8632C200.613 20.2775 200.513 20.6082 200.334 20.8527C200.154 21.0988 199.856 21.2679 199.438 21.3614C199.021 21.4566 198.408 21.5034 197.601 21.5034H183.744C183.872 22.3075 184.132 22.9803 184.523 23.5218C184.885 24.0344 185.346 24.4728 185.879 24.8125C186.393 25.1333 186.938 25.3622 187.516 25.5017C188.051 25.6345 188.6 25.7039 189.151 25.7085C189.614 25.7085 190.088 25.6609 190.575 25.5674C191.056 25.475 191.529 25.3489 191.991 25.1899C192.423 25.0428 192.841 24.8597 193.241 24.6426C193.62 24.4359 193.924 24.2184 194.156 23.9928C194.361 23.8287 194.537 23.7064 194.685 23.6244C194.832 23.5423 194.99 23.5021 195.156 23.5021C195.324 23.5021 195.493 23.5596 195.667 23.672C195.878 23.8165 196.075 23.9805 196.253 24.1618L198.294 26.4248C198.434 26.5889 198.525 26.7366 198.563 26.8679C198.602 27 198.621 27.1354 198.621 27.2732C198.621 27.5251 198.55 27.7417 198.409 27.9239C198.267 28.1071 198.098 28.2691 197.908 28.4047H197.909ZM188.651 12.6976C188.151 12.6976 187.667 12.7953 187.198 12.9897C186.723 13.1885 186.279 13.452 185.879 13.7725C185.469 14.0991 185.1 14.4699 184.773 14.8851C184.461 15.2765 184.193 15.7002 183.974 16.1487H193.809C193.551 15.6759 193.258 15.2221 192.934 14.7907C192.625 14.3815 192.262 14.0138 191.856 13.697C191.44 13.3765 190.971 13.1279 190.47 12.9618C189.95 12.7854 189.344 12.6976 188.651 12.6976Z" fill="white"/>
</svg>
