<svg width="39" height="38" viewBox="0 0 39 38" fill="none" xmlns="http://www.w3.org/2000/svg">
<g clip-path="url(#clip0)">
<path d="M27.7575 14.3546C27.4142 14.5035 27.0579 14.6209 26.6922 14.706C27.0951 14.3315 27.3981 13.8632 27.569 13.3404C27.6177 13.1912 27.452 13.0622 27.3142 13.1421C26.8055 13.4371 26.2576 13.6585 25.6856 13.8001C25.6525 13.8083 25.6182 13.8125 25.5839 13.8125C25.4797 13.8125 25.3784 13.7746 25.2986 13.7059C24.6902 13.1814 23.9074 12.8926 23.0948 12.8926C22.7431 12.8926 22.3881 12.9462 22.0395 13.0518C20.9595 13.3795 20.1261 14.2507 19.8646 15.3257C19.7666 15.7289 19.74 16.1324 19.7857 16.5252C19.791 16.5703 19.7691 16.6018 19.7557 16.6165C19.732 16.6425 19.6985 16.6573 19.6638 16.6573C19.6599 16.6573 19.6559 16.6571 19.6519 16.6567C17.2878 16.442 15.1558 15.328 13.649 13.5203C13.5721 13.428 13.4247 13.4394 13.3635 13.5422C13.0684 14.0373 12.9125 14.6036 12.9125 15.1798C12.9125 16.0629 13.2752 16.8951 13.9055 17.5018C13.6404 17.4404 13.384 17.3437 13.1457 17.2142C13.0304 17.1515 12.8886 17.2321 12.8869 17.361C12.8704 18.6728 13.6559 19.8402 14.8323 20.3659C14.8087 20.3664 14.785 20.3668 14.7613 20.3668C14.5748 20.3668 14.386 20.3491 14.2001 20.3143C14.0703 20.2902 13.9612 20.4106 14.0015 20.5337C14.3835 21.6997 15.4099 22.5591 16.6384 22.7542C15.6189 23.4236 14.4316 23.7765 13.1958 23.7765L12.8106 23.7764C12.6919 23.7764 12.5916 23.8521 12.5613 23.9645C12.5315 24.0752 12.5864 24.1921 12.6876 24.2496C14.08 25.0422 15.6684 25.461 17.2815 25.461C18.6935 25.461 20.0143 25.187 21.2072 24.6465C22.3009 24.151 23.2673 23.4429 24.0798 22.5415C24.8365 21.7019 25.4283 20.7326 25.8386 19.6607C26.2297 18.6389 26.4364 17.5486 26.4364 16.5076V16.4581C26.4364 16.291 26.5136 16.1336 26.6485 16.0266C27.1603 15.6202 27.6058 15.1419 27.9729 14.605C28.0699 14.4632 27.9169 14.2855 27.7575 14.3546Z" fill="white"/>
<path d="M19.6843 36.6138C29.8581 36.6138 38.1055 28.548 38.1055 18.5984C38.1055 8.64877 29.8581 0.583008 19.6843 0.583008C9.51061 0.583008 1.26318 8.64877 1.26318 18.5984C1.26318 28.548 9.51061 36.6138 19.6843 36.6138Z" stroke="#DBDBDB"/>
</g>
<defs>
<clipPath id="clip0">
<rect width="38.0308" height="37.1931" fill="white" transform="translate(0.668945)"/>
</clipPath>
</defs>
</svg>
