<svg width="31" height="41" viewBox="0 0 31 41" fill="none" xmlns="http://www.w3.org/2000/svg">
<path d="M0 2C0 0.895431 0.895431 0 2 0H19V12H31V38C31 39.1046 30.1046 40 29 40H2C0.89543 40 0 39.1046 0 38V2Z" fill="#69A7DB"/>
<path d="M21 0L26.5 5.5L31 10H21V0Z" fill="#69A7DB"/>
<path d="M8.57737 33.4272C11.1546 33.1605 17.0001 19.5001 17.0001 17.0003C17.0001 14.5005 13.5001 14.5001 13.5001 17.0002C13.5001 19.5003 21.5911 29.5002 24.0911 29.0001C26.5911 28.5001 25.5911 26.0002 24.0911 26.0002C22.5911 26.0002 10.5001 29.0002 8.0001 30.1939C5.50008 31.3877 6.00015 33.6939 8.57737 33.4272Z" stroke="white"/>
</svg>
