<svg width="32" height="32" viewBox="0 0 32 32" fill="none" xmlns="http://www.w3.org/2000/svg">
<path d="M11.4805 14.989H13.344V21.7581C13.344 21.8917 13.4667 22 13.6182 22H16.7778C16.9292 22 17.0519 21.8917 17.0519 21.7581V15.0209H19.1942C19.3335 15.0209 19.4507 14.9287 19.4666 14.8066L19.7919 12.3146C19.8009 12.246 19.7763 12.1773 19.7243 12.1259C19.6722 12.0744 19.5978 12.045 19.5196 12.045H17.0521V10.4828C17.0521 10.0119 17.3394 9.77312 17.9063 9.77312C17.987 9.77312 19.5196 9.77312 19.5196 9.77312C19.6711 9.77312 19.7938 9.66479 19.7938 9.53119V7.24372C19.7938 7.11007 19.6711 7.00179 19.5196 7.00179H17.2962C17.2805 7.00111 17.2456 7 17.1943 7C16.8085 7 15.4676 7.06683 14.4083 7.92666C13.2346 8.87951 13.3978 10.0204 13.4368 10.2182V12.0449H11.4805C11.329 12.0449 11.2063 12.1532 11.2063 12.2868V14.747C11.2063 14.8807 11.3291 14.989 11.4805 14.989Z" fill="#385C8E"/>
<circle cx="16" cy="16" r="15.5" stroke="#DBDBDB"/>
</svg>
