<svg width="32" height="32" viewBox="0 0 32 32" fill="none" xmlns="http://www.w3.org/2000/svg">
<path fill-rule="evenodd" clip-rule="evenodd" d="M16 12.6667C14.159 12.6667 12.6666 14.1591 12.6666 16.0001C12.6666 17.841 14.159 19.3334 16 19.3334C17.8409 19.3334 19.3333 17.841 19.3333 16.0001C19.3333 14.1591 17.8409 12.6667 16 12.6667ZM14 16.0001C14 17.1047 14.8954 18.0001 16 18.0001C17.1046 18.0001 18 17.1047 18 16.0001C18 14.8955 17.1046 14.0001 16 14.0001C14.8954 14.0001 14 14.8955 14 16.0001Z" fill="#385C8E"/>
<path d="M20 11.3333C19.6318 11.3333 19.3334 11.6317 19.3334 11.9999C19.3334 12.3681 19.6318 12.6666 20 12.6666C20.3682 12.6666 20.6667 12.3681 20.6667 11.9999C20.6667 11.6317 20.3682 11.3333 20 11.3333Z" fill="#385C8E"/>
<path fill-rule="evenodd" clip-rule="evenodd" d="M11.3333 8.66675C9.86053 8.66675 8.66663 9.86065 8.66663 11.3334V20.6667C8.66663 22.1395 9.86053 23.3334 11.3333 23.3334H20.6666C22.1394 23.3334 23.3333 22.1395 23.3333 20.6667V11.3334C23.3333 9.86065 22.1394 8.66675 20.6666 8.66675H11.3333ZM20.6666 10.0001H11.3333C10.5969 10.0001 9.99996 10.597 9.99996 11.3334V20.6667C9.99996 21.4031 10.5969 22.0001 11.3333 22.0001H20.6666C21.403 22.0001 22 21.4031 22 20.6667V11.3334C22 10.597 21.403 10.0001 20.6666 10.0001Z" fill="#385C8E"/>
<circle cx="16" cy="16" r="15.5" stroke="#DBDBDB"/>
</svg>
