<svg width="32" height="32" viewBox="0 0 32 32" fill="none" xmlns="http://www.w3.org/2000/svg">
<g clip-path="url(#clip0)">
<path d="M22.7932 12.3512C22.5044 12.4793 22.2046 12.5803 21.8969 12.6535C22.2359 12.3313 22.4908 11.9284 22.6346 11.4786C22.6756 11.3502 22.5362 11.2392 22.4202 11.308C21.9922 11.5618 21.5312 11.7523 21.0499 11.8741C21.022 11.8812 20.9932 11.8848 20.9643 11.8848C20.8766 11.8848 20.7914 11.8522 20.7243 11.7931C20.2123 11.3418 19.5537 11.0933 18.8699 11.0933C18.574 11.0933 18.2753 11.1394 17.982 11.2303C17.0732 11.5122 16.372 12.2618 16.152 13.1867C16.0695 13.5336 16.0471 13.8808 16.0856 14.2187C16.09 14.2575 16.0716 14.2846 16.0603 14.2973C16.0404 14.3196 16.0122 14.3324 15.983 14.3324C15.9797 14.3324 15.9764 14.3322 15.973 14.3319C13.9838 14.1471 12.1899 13.1887 10.922 11.6334C10.8573 11.554 10.7333 11.5638 10.6818 11.6522C10.4335 12.0782 10.3023 12.5654 10.3023 13.0612C10.3023 13.821 10.6075 14.537 11.1378 15.059C10.9148 15.0061 10.699 14.9229 10.4985 14.8115C10.4015 14.7576 10.2822 14.8269 10.2808 14.9378C10.2669 16.0665 10.9278 17.0709 11.9177 17.5232C11.8978 17.5236 11.8779 17.5239 11.8579 17.5239C11.701 17.5239 11.5421 17.5087 11.3857 17.4788C11.2765 17.458 11.1847 17.5616 11.2186 17.6675C11.54 18.6707 12.4037 19.4101 13.4374 19.578C12.5795 20.1539 11.5805 20.4576 10.5407 20.4576L10.2166 20.4575C10.1167 20.4575 10.0323 20.5226 10.0068 20.6193C9.98173 20.7146 10.0279 20.8151 10.1131 20.8646C11.2847 21.5465 12.6212 21.9069 13.9785 21.9069C15.1666 21.9069 16.2779 21.6711 17.2817 21.2061C18.2019 20.7798 19.0151 20.1705 19.6987 19.395C20.3354 18.6726 20.8334 17.8387 21.1786 16.9164C21.5077 16.0373 21.6816 15.0992 21.6816 14.2036V14.161C21.6816 14.0172 21.7466 13.8818 21.8601 13.7897C22.2907 13.4401 22.6656 13.0286 22.9745 12.5666C23.0561 12.4446 22.9274 12.2917 22.7932 12.3512Z" fill="#385C8E"/>
</g>
<circle cx="16" cy="16" r="15.5" stroke="#DBDBDB"/>
<defs>
<clipPath id="clip0">
<rect width="13" height="13" fill="white" transform="translate(10 10)"/>
</clipPath>
</defs>
</svg>
