<svg width="14" height="14" viewBox="0 0 14 14" fill="none" xmlns="http://www.w3.org/2000/svg">
<g clip-path="url(#clip0_1212_2801)">
<path d="M7.58335 5.08335H6.41669V7.41669H4.08335V8.58335H6.41669V10.9167H7.58335V8.58335H9.91669V7.41669H7.58335V5.08335ZM7.00002 2.16669C3.78002 2.16669 1.16669 4.78002 1.16669 8.00002C1.16669 11.22 3.78002 13.8334 7.00002 13.8334C10.22 13.8334 12.8334 11.22 12.8334 8.00002C12.8334 4.78002 10.22 2.16669 7.00002 2.16669ZM7.00002 12.6667C4.42752 12.6667 2.33335 10.5725 2.33335 8.00002C2.33335 5.42752 4.42752 3.33335 7.00002 3.33335C9.57252 3.33335 11.6667 5.42752 11.6667 8.00002C11.6667 10.5725 9.57252 12.6667 7.00002 12.6667Z" fill="#185ABD"/>
</g>
<defs>
<clipPath id="clip0_1212_2801">
<rect width="14" height="14" fill="white"/>
</clipPath>
</defs>
</svg>
