<svg width="35" height="39" viewBox="0 0 35 39" fill="none" xmlns="http://www.w3.org/2000/svg">
<path d="M4.424 4.265L6.53752 0.883363L9.1 4.3L9.58541 4.94721L9.94721 4.22361L11.5854 0.947213L14.1 4.3L14.5375 4.88336L14.924 4.265L17 0.943399L19.076 4.265L19.5 4.9434L19.924 4.265L22.0375 0.883363L24.6 4.3L25 4.83333L25.4 4.3L27.5 1.5V38.5H4C2.067 38.5 0.5 36.933 0.5 35V1.20711L3.64645 4.35355L4.09088 4.79799L4.424 4.265Z" fill="#ECF7FF" stroke="#9EB0C6"/>
<path d="M27.5 19.5H34.5V35C34.5 36.933 32.933 38.5 31 38.5H27.5V19.5Z" fill="#91B3D0" stroke="#9EB0C6"/>
<path d="M15.1987 15.5879C15.1987 15.2282 15.0845 14.932 14.856 14.6992C14.6274 14.4622 14.2466 14.2507 13.7134 14.0645C13.1802 13.874 12.7655 13.6984 12.4692 13.5376C11.4832 13.0086 10.9902 12.2257 10.9902 11.189C10.9902 10.4865 11.2039 9.90885 11.6313 9.45605C12.0588 9.00326 12.6385 8.73454 13.3706 8.6499V7.26611H14.3862V8.6626C15.1226 8.76839 15.6917 9.08154 16.0938 9.60205C16.4958 10.1183 16.6968 10.7912 16.6968 11.6206H15.1606C15.1606 11.0874 15.04 10.6685 14.7988 10.3638C14.5618 10.0549 14.2381 9.90039 13.8276 9.90039C13.4214 9.90039 13.104 10.0104 12.8755 10.2305C12.647 10.4505 12.5327 10.7658 12.5327 11.1763C12.5327 11.5444 12.6449 11.8407 12.8691 12.0649C13.0977 12.285 13.4827 12.4945 14.0244 12.6934C14.5661 12.8923 14.9914 13.0763 15.3003 13.2456C15.6092 13.4149 15.8695 13.6095 16.0811 13.8296C16.2926 14.0454 16.4556 14.2951 16.5698 14.5786C16.6841 14.8621 16.7412 15.1943 16.7412 15.5752C16.7412 16.2904 16.5212 16.8701 16.0811 17.3145C15.6452 17.7588 15.0358 18.0212 14.2529 18.1016V19.3394H13.2437V18.1079C12.4058 18.0148 11.7604 17.7144 11.3076 17.2065C10.859 16.6987 10.6348 16.0259 10.6348 15.188H12.1772C12.1772 15.7212 12.3105 16.1338 12.5771 16.4258C12.848 16.7178 13.2288 16.8638 13.7197 16.8638C14.2021 16.8638 14.5682 16.7474 14.8179 16.5146C15.0718 16.2819 15.1987 15.973 15.1987 15.5879Z" fill="#8DA2BD"/>
<line x1="6" y1="13.5" x2="9" y2="13.5" stroke="#8DA2BD"/>
<line x1="19" y1="13.5" x2="22" y2="13.5" stroke="#8DA2BD"/>
<line x1="6" y1="21.5" x2="7" y2="21.5" stroke="#8DA2BD"/>
<line x1="6" y1="26.5" x2="7" y2="26.5" stroke="#8DA2BD"/>
<line x1="6" y1="31.5" x2="7" y2="31.5" stroke="#8DA2BD"/>
<line x1="10" y1="21.5" x2="22" y2="21.5" stroke="#8DA2BD"/>
<line x1="10" y1="26.5" x2="22" y2="26.5" stroke="#8DA2BD"/>
<line x1="10" y1="31.5" x2="22" y2="31.5" stroke="#8DA2BD"/>
</svg>
