<svg width="47" height="47" viewBox="0 0 47 47" fill="none" xmlns="http://www.w3.org/2000/svg">
<g filter="url(#filter0_d)">
<circle cx="23.5" cy="21.5" r="21.5" fill="white"/>
</g>
<circle cx="24" cy="21" r="15" fill="#2267A0"/>
<path d="M25.552 12.648C25.1973 12.648 24.8987 12.5453 24.656 12.34C24.432 12.116 24.32 11.836 24.32 11.5C24.32 11.0147 24.5253 10.5947 24.936 10.24C25.3467 9.86667 25.7947 9.68 26.28 9.68C26.6347 9.68 26.924 9.792 27.148 10.016C27.3907 10.2213 27.512 10.492 27.512 10.828C27.512 11.3133 27.3067 11.7427 26.896 12.116C26.4853 12.4707 26.0373 12.648 25.552 12.648ZM21.968 29.168C21.576 29.168 21.2587 29.056 21.016 28.832C20.7733 28.608 20.652 28.3 20.652 27.908C20.652 27.74 20.68 27.5627 20.736 27.376L23.004 18.192C23.0227 18.136 23.032 18.0613 23.032 17.968C23.032 17.8 22.976 17.6693 22.864 17.576C22.7707 17.4827 22.64 17.436 22.472 17.436C21.8187 17.436 20.9693 17.7813 19.924 18.472C20.6893 17.6133 21.4547 16.932 22.22 16.428C22.9853 15.924 23.6667 15.672 24.264 15.672C24.656 15.672 24.9733 15.784 25.216 16.008C25.4587 16.232 25.58 16.54 25.58 16.932C25.58 17.0813 25.552 17.2587 25.496 17.464L23.2 26.648C23.1627 26.76 23.144 26.8627 23.144 26.956C23.144 27.2547 23.3493 27.404 23.76 27.404C24.4133 27.404 25.2627 27.0587 26.308 26.368C25.5427 27.2267 24.7773 27.908 24.012 28.412C23.2467 28.916 22.5653 29.168 21.968 29.168Z" fill="white"/>
<defs>
<filter id="filter0_d" x="0" y="0" width="47" height="47" filterUnits="userSpaceOnUse" color-interpolation-filters="sRGB">
<feFlood flood-opacity="0" result="BackgroundImageFix"/>
<feColorMatrix in="SourceAlpha" type="matrix" values="0 0 0 0 0 0 0 0 0 0 0 0 0 0 0 0 0 0 127 0" result="hardAlpha"/>
<feOffset dy="2"/>
<feGaussianBlur stdDeviation="1"/>
<feComposite in2="hardAlpha" operator="out"/>
<feColorMatrix type="matrix" values="0 0 0 0 0 0 0 0 0 0 0 0 0 0 0 0 0 0 0.25 0"/>
<feBlend mode="normal" in2="BackgroundImageFix" result="effect1_dropShadow"/>
<feBlend mode="normal" in="SourceGraphic" in2="effect1_dropShadow" result="shape"/>
</filter>
</defs>
</svg>
