<svg width="41" height="27" viewBox="0 0 41 27" fill="none" xmlns="http://www.w3.org/2000/svg">
<rect width="41" height="27" rx="4" fill="#4F4F4F"/>
<path d="M11.8552 17.0538C11.8552 16.5004 11.6794 16.0447 11.3279 15.6866C10.9763 15.322 10.3904 14.9965 9.57007 14.71C8.74976 14.417 8.11174 14.1469 7.65601 13.8995C6.13908 13.0857 5.38062 11.8812 5.38062 10.2862C5.38062 9.20546 5.70939 8.31679 6.36694 7.62017C7.0245 6.92356 7.91642 6.51015 9.04272 6.37994V4.25103H10.6052V6.39947C11.738 6.56223 12.6137 7.044 13.2322 7.84478C13.8507 8.63905 14.1599 9.67421 14.1599 10.9503H11.7966C11.7966 10.1299 11.6111 9.48541 11.24 9.01666C10.8754 8.5414 10.3774 8.30377 9.74585 8.30377C9.12085 8.30377 8.63257 8.47304 8.28101 8.81158C7.92944 9.15012 7.75366 9.63515 7.75366 10.2667C7.75366 10.8331 7.92619 11.2888 8.27124 11.6338C8.6228 11.9724 9.21525 12.2947 10.0486 12.6006C10.8819 12.9066 11.5362 13.1898 12.0115 13.4503C12.4867 13.7107 12.8871 14.0101 13.2126 14.3487C13.5382 14.6807 13.7888 15.0648 13.9646 15.501C14.1404 15.9372 14.2283 16.4483 14.2283 17.0342C14.2283 18.1345 13.8897 19.0264 13.2126 19.71C12.5421 20.3936 11.6046 20.7973 10.4001 20.921V22.8253H8.84741V20.9307C7.55835 20.7875 6.56551 20.3253 5.8689 19.544C5.17879 18.7628 4.83374 17.7276 4.83374 16.4385H7.20679C7.20679 17.2588 7.41187 17.8936 7.82202 18.3428C8.23869 18.792 8.82463 19.0167 9.57983 19.0167C10.322 19.0167 10.8852 18.8376 11.2693 18.4795C11.6599 18.1215 11.8552 17.6462 11.8552 17.0538Z" fill="white"/>
<line x1="18.4082" y1="10.1176" x2="36.8164" y2="10.1176" stroke="white" stroke-width="2"/>
<line x1="18.4082" y1="16.4706" x2="26.7756" y2="16.4706" stroke="white" stroke-width="2"/>
<line x1="30.9592" y1="16.4706" x2="36.8164" y2="16.4706" stroke="white" stroke-width="2"/>
</svg>
