<svg width="51" height="50" viewBox="0 0 51 50" fill="none" xmlns="http://www.w3.org/2000/svg">
<circle cx="25.2725" cy="25" r="25" fill="#3A4E7A"/>
<path d="M27.1885 27.7373C27.0889 29.1143 26.5791 30.1982 25.6592 30.9893C24.7451 31.7803 23.5381 32.1758 22.0381 32.1758C20.3975 32.1758 19.1055 31.625 18.1621 30.5234C17.2246 29.416 16.7559 27.8984 16.7559 25.9707V25.1885C16.7559 23.958 16.9727 22.874 17.4062 21.9365C17.8398 20.999 18.458 20.2812 19.2607 19.7832C20.0693 19.2793 21.0068 19.0273 22.0732 19.0273C23.5498 19.0273 24.7393 19.4229 25.6416 20.2139C26.5439 21.0049 27.0654 22.1152 27.2061 23.5449H24.5693C24.5049 22.7188 24.2734 22.1211 23.875 21.752C23.4824 21.377 22.8818 21.1895 22.0732 21.1895C21.1943 21.1895 20.5352 21.5059 20.0957 22.1387C19.6621 22.7656 19.4395 23.7412 19.4277 25.0654V26.0322C19.4277 27.415 19.6357 28.4258 20.0518 29.0645C20.4736 29.7031 21.1357 30.0225 22.0381 30.0225C22.8525 30.0225 23.459 29.8379 23.8574 29.4688C24.2617 29.0938 24.4932 28.5166 24.5518 27.7373H27.1885ZM31.7236 32H29.0869V19.2031H31.7236V32Z" fill="white"/>
</svg>
