<svg width="6" height="12" viewBox="0 0 6 12" fill="none" xmlns="http://www.w3.org/2000/svg">
<path d="M5.18182 2.72727V9C5.18182 10.2055 4.20545 11.1818 3 11.1818C1.79455 11.1818 0.818182 10.2055 0.818182 9V2.18182C0.818182 1.82016 0.96185 1.47331 1.21758 1.21758C1.47331 0.96185 1.82016 0.818182 2.18182 0.818182C2.54348 0.818182 2.89032 0.96185 3.14605 1.21758C3.40179 1.47331 3.54545 1.82016 3.54545 2.18182V7.90909C3.54545 8.20909 3.3 8.45455 3 8.45455C2.7 8.45455 2.45455 8.20909 2.45455 7.90909V2.72727H1.63636V7.90909C1.63636 8.27075 1.78003 8.6176 2.03576 8.87333C2.2915 9.12906 2.63834 9.27273 3 9.27273C3.36166 9.27273 3.70851 9.12906 3.96424 8.87333C4.21997 8.6176 4.36364 8.27075 4.36364 7.90909V2.18182C4.36364 0.976364 3.38727 0 2.18182 0C0.976364 0 0 0.976364 0 2.18182V9C0 10.6582 1.34182 12 3 12C4.65818 12 6 10.6582 6 9V2.72727H5.18182Z" fill="#5278D4"/>
</svg>
