<svg width="51" height="50" viewBox="0 0 51 50" fill="none" xmlns="http://www.w3.org/2000/svg">
<circle cx="25.2725" cy="25" r="25" fill="#3A4E7A"/>
<path d="M20.1426 32V19.2031H24.0801C25.2051 19.2031 26.21 19.458 27.0947 19.9678C27.9854 20.4717 28.6797 21.1924 29.1777 22.1299C29.6758 23.0615 29.9248 24.1221 29.9248 25.3115V25.9004C29.9248 27.0898 29.6787 28.1475 29.1865 29.0732C28.7002 29.999 28.0117 30.7168 27.1211 31.2266C26.2305 31.7363 25.2256 31.9941 24.1064 32H20.1426ZM22.7793 21.3389V29.8818H24.0537C25.085 29.8818 25.873 29.5449 26.418 28.8711C26.9629 28.1973 27.2412 27.2334 27.2529 25.9795V25.3027C27.2529 24.002 26.9834 23.0176 26.4443 22.3496C25.9053 21.6758 25.1172 21.3389 24.0801 21.3389H22.7793Z" fill="white"/>
</svg>
