<svg width="14" height="14" viewBox="0 0 14 14" fill="none" xmlns="http://www.w3.org/2000/svg">
<path d="M12.5413 2.3335H11.2774V3.11127H12.4441V11.6668H1.55522V3.11127H2.72189V2.3335H1.458C1.36709 2.33502 1.27737 2.35443 1.19397 2.39063C1.11057 2.42683 1.03511 2.4791 0.971912 2.54446C0.908714 2.60983 0.859012 2.687 0.825645 2.77158C0.792278 2.85616 0.775899 2.94648 0.777444 3.03738V11.7407C0.775899 11.8316 0.792278 11.9219 0.825645 12.0065C0.859012 12.0911 0.908714 12.1683 0.971912 12.2336C1.03511 12.299 1.11057 12.3513 1.19397 12.3875C1.27737 12.4237 1.36709 12.4431 1.458 12.4446H12.5413C12.6322 12.4431 12.722 12.4237 12.8054 12.3875C12.8888 12.3513 12.9642 12.299 13.0274 12.2336C13.0906 12.1683 13.1403 12.0911 13.1737 12.0065C13.2071 11.9219 13.2234 11.8316 13.2219 11.7407V3.03738C13.2234 2.94648 13.2071 2.85616 13.1737 2.77158C13.1403 2.687 13.0906 2.60983 13.0274 2.54446C12.9642 2.4791 12.8888 2.42683 12.8054 2.39063C12.722 2.35443 12.6322 2.33502 12.5413 2.3335Z" fill="#5278D4"/>
<path d="M3.11133 5.44434H3.88911V6.22211H3.11133V5.44434Z" fill="#5278D4"/>
<path d="M5.44434 5.44434H6.22211V6.22211H5.44434V5.44434Z" fill="#5278D4"/>
<path d="M7.77734 5.44434H8.55512V6.22211H7.77734V5.44434Z" fill="#5278D4"/>
<path d="M10.1113 5.44434H10.8891V6.22211H10.1113V5.44434Z" fill="#5278D4"/>
<path d="M3.11133 7.38867H3.88911V8.16645H3.11133V7.38867Z" fill="#5278D4"/>
<path d="M5.44434 7.38867H6.22211V8.16645H5.44434V7.38867Z" fill="#5278D4"/>
<path d="M7.77734 7.38867H8.55512V8.16645H7.77734V7.38867Z" fill="#5278D4"/>
<path d="M10.1113 7.38867H10.8891V8.16645H10.1113V7.38867Z" fill="#5278D4"/>
<path d="M3.11133 9.3335H3.88911V10.1113H3.11133V9.3335Z" fill="#5278D4"/>
<path d="M5.44434 9.3335H6.22211V10.1113H5.44434V9.3335Z" fill="#5278D4"/>
<path d="M7.77734 9.3335H8.55512V10.1113H7.77734V9.3335Z" fill="#5278D4"/>
<path d="M10.1113 9.3335H10.8891V10.1113H10.1113V9.3335Z" fill="#5278D4"/>
<path d="M3.88889 3.88894C3.99203 3.88894 4.09094 3.84797 4.16387 3.77504C4.23681 3.70211 4.27778 3.60319 4.27778 3.50005V1.16672C4.27778 1.06358 4.23681 0.964666 4.16387 0.891735C4.09094 0.818804 3.99203 0.777832 3.88889 0.777832C3.78575 0.777832 3.68683 0.818804 3.6139 0.891735C3.54097 0.964666 3.5 1.06358 3.5 1.16672V3.50005C3.5 3.60319 3.54097 3.70211 3.6139 3.77504C3.68683 3.84797 3.78575 3.88894 3.88889 3.88894Z" fill="#5278D4"/>
<path d="M10.1115 3.88894C10.2147 3.88894 10.3136 3.84797 10.3865 3.77504C10.4595 3.70211 10.5004 3.60319 10.5004 3.50005V1.16672C10.5004 1.06358 10.4595 0.964666 10.3865 0.891735C10.3136 0.818804 10.2147 0.777832 10.1115 0.777832C10.0084 0.777832 9.90949 0.818804 9.83656 0.891735C9.76363 0.964666 9.72266 1.06358 9.72266 1.16672V3.50005C9.72266 3.60319 9.76363 3.70211 9.83656 3.77504C9.90949 3.84797 10.0084 3.88894 10.1115 3.88894Z" fill="#5278D4"/>
<path d="M5.05566 2.3335H8.94455V3.11127H5.05566V2.3335Z" fill="#5278D4"/>
</svg>
