<svg width="51" height="50" viewBox="0 0 51 50" fill="none" xmlns="http://www.w3.org/2000/svg">
<circle cx="25.2725" cy="25" r="25" fill="#3A4E7A"/>
<path d="M22.8242 26.1895H17.1992V32H14.2695V17.7812H23.5273V20.1543H17.1992V23.8262H22.8242V26.1895ZM32.5996 28.2695C32.5996 27.7161 32.4043 27.293 32.0137 27C31.623 26.7005 30.9199 26.388 29.9043 26.0625C28.8887 25.7305 28.0846 25.4049 27.4922 25.0859C25.8776 24.2135 25.0703 23.0384 25.0703 21.5605C25.0703 20.7923 25.2852 20.1087 25.7148 19.5098C26.151 18.9043 26.7728 18.4323 27.5801 18.0938C28.3939 17.7552 29.3053 17.5859 30.3145 17.5859C31.3301 17.5859 32.235 17.7715 33.0293 18.1426C33.8236 18.5072 34.4388 19.0247 34.875 19.6953C35.3177 20.3659 35.5391 21.1276 35.5391 21.9805H32.6094C32.6094 21.3294 32.4043 20.8249 31.9941 20.4668C31.584 20.1022 31.0078 19.9199 30.2656 19.9199C29.5495 19.9199 28.9928 20.0729 28.5957 20.3789C28.1986 20.6784 28 21.0755 28 21.5703C28 22.0326 28.2311 22.4199 28.6934 22.7324C29.1621 23.0449 29.849 23.3379 30.7539 23.6113C32.4206 24.1126 33.6348 24.7344 34.3965 25.4766C35.1582 26.2188 35.5391 27.1432 35.5391 28.25C35.5391 29.4805 35.0736 30.4473 34.1426 31.1504C33.2116 31.847 31.9583 32.1953 30.3828 32.1953C29.2891 32.1953 28.293 31.9967 27.3945 31.5996C26.4961 31.196 25.8092 30.6458 25.334 29.9492C24.8652 29.2526 24.6309 28.4453 24.6309 27.5273H27.5703C27.5703 29.0964 28.5078 29.8809 30.3828 29.8809C31.0794 29.8809 31.623 29.7409 32.0137 29.4609C32.4043 29.1745 32.5996 28.7773 32.5996 28.2695Z" fill="white"/>
</svg>
