<svg width="664" height="482" viewBox="0 0 664 482" fill="none" xmlns="http://www.w3.org/2000/svg">
<g clip-path="url(#clip0_1313_5202)">
<path d="M392.073 87.852H318.69V89.2108H392.073V87.852Z" fill="#CCCCCC"/>
<path d="M261.382 87.852H28.6543V89.2108H261.382V87.852Z" fill="#CCCCCC"/>
<path d="M28.6539 116.383C44.479 116.383 57.3078 103.913 57.3078 88.531C57.3078 73.1488 44.479 60.679 28.6539 60.679C12.8288 60.679 0 73.1488 0 88.531C0 103.913 12.8288 116.383 28.6539 116.383Z" fill="#6C63FF"/>
<path d="M159.345 116.383C175.17 116.383 187.999 103.913 187.999 88.531C187.999 73.1488 175.17 60.679 159.345 60.679C143.52 60.679 130.691 73.1488 130.691 88.531C130.691 103.913 143.52 116.383 159.345 116.383Z" fill="#3F3D56"/>
<path d="M290.033 117.064C284.227 117.064 278.552 115.39 273.725 112.255C268.898 109.12 265.136 104.664 262.914 99.4504C260.692 94.2369 260.111 88.5001 261.244 82.9655C262.376 77.4309 265.172 72.347 269.277 68.3568C273.382 64.3665 278.612 61.6491 284.306 60.5482C290 59.4473 295.902 60.0123 301.266 62.1718C306.63 64.3313 311.214 67.9883 314.439 72.6804C317.665 77.3724 319.386 82.8887 319.386 88.5318C319.386 96.0989 316.294 103.356 310.789 108.707C305.284 114.058 297.818 117.064 290.033 117.064ZM290.033 61.3588C284.504 61.3588 279.099 62.9525 274.502 65.9383C269.905 68.9241 266.321 73.1679 264.206 78.1331C262.09 83.0983 261.536 88.5619 262.615 93.8329C263.693 99.104 266.356 103.946 270.266 107.746C274.175 111.546 279.156 114.134 284.579 115.183C290.002 116.231 295.623 115.693 300.731 113.636C305.839 111.58 310.205 108.097 313.277 103.628C316.349 99.1597 317.988 93.9061 317.988 88.5318C317.988 81.325 315.043 74.4135 309.8 69.3176C304.558 64.2217 297.447 61.3588 290.033 61.3588Z" fill="#CCCCCC"/>
<path d="M420.724 117.064C414.919 117.064 409.244 115.39 404.417 112.255C399.589 109.12 395.827 104.664 393.606 99.4504C391.384 94.2369 390.803 88.5001 391.935 82.9655C393.068 77.4309 395.863 72.347 399.968 68.3568C404.074 64.3665 409.304 61.6491 414.998 60.5482C420.692 59.4473 426.594 60.0123 431.957 62.1718C437.321 64.3313 441.905 67.9883 445.131 72.6804C448.356 77.3724 450.078 82.8887 450.078 88.5318C450.078 96.0989 446.985 103.356 441.48 108.707C435.975 114.058 428.509 117.064 420.724 117.064ZM420.724 61.3588C415.195 61.3588 409.79 62.9525 405.193 65.9383C400.596 68.9241 397.013 73.1679 394.897 78.1331C392.781 83.0983 392.228 88.5619 393.306 93.8329C394.385 99.104 397.047 103.946 400.957 107.746C404.867 111.546 409.848 114.134 415.271 115.183C420.693 116.231 426.314 115.693 431.422 113.636C436.531 111.58 440.897 108.097 443.968 103.628C447.04 99.1597 448.68 93.9061 448.68 88.5318C448.68 84.9634 447.957 81.4299 446.552 78.1331C445.147 74.8364 443.088 71.8408 440.492 69.3176C437.896 66.7944 434.814 64.7928 431.422 63.4272C428.031 62.0617 424.396 61.3588 420.724 61.3588Z" fill="#CCCCCC"/>
<path d="M26.4482 96.8355C25.9449 96.8359 25.455 96.6772 25.0526 96.3833L25.0278 96.3652L19.7686 92.4553C19.2767 92.0887 18.9548 91.5472 18.8736 90.9499C18.7925 90.3526 18.9588 89.7484 19.3359 89.2703C19.7131 88.7922 20.2701 88.4793 20.8846 88.4004C21.4991 88.3216 22.1207 88.4832 22.6126 88.8498L26.0187 91.3889L34.0676 81.1814C34.4446 80.7035 35.0014 80.3907 35.6156 80.3119C36.2298 80.233 36.851 80.3945 37.3427 80.7608L37.2931 80.8279L37.3443 80.7608C37.8355 81.1277 38.1568 81.6691 38.2378 82.2661C38.3188 82.8631 38.1527 83.4669 37.7761 83.945L28.3083 95.9454C28.089 96.2221 27.807 96.4459 27.4843 96.5995C27.1616 96.7531 26.8068 96.8323 26.4474 96.831L26.4482 96.8355Z" fill="white"/>
<path d="M509.081 207.686C509.617 207.924 510.132 208.203 510.622 208.521L559.588 188.207L561.335 175.669L580.901 175.552L579.745 204.31L515.114 220.926C514.978 221.362 514.815 221.79 514.625 222.207C513.69 224.145 512.188 225.772 510.305 226.882C508.423 227.993 506.245 228.538 504.045 228.449C501.845 228.361 499.72 227.642 497.939 226.384C496.158 225.125 494.799 223.384 494.032 221.377C493.266 219.371 493.127 217.189 493.632 215.105C494.137 213.022 495.265 211.13 496.872 209.668C498.48 208.205 500.497 207.237 502.669 206.885C504.841 206.533 507.071 206.812 509.08 207.688L509.081 207.686Z" fill="#FEB8B8"/>
<path d="M588.017 468.269H574.632L568.265 418.088H588.018L588.017 468.269Z" fill="#FEB8B8"/>
<path d="M565.071 464.552H590.884V480.345H548.818C548.818 476.155 550.531 472.137 553.579 469.174C556.627 466.211 560.761 464.547 565.071 464.547V464.552Z" fill="#2F2E41"/>
<path d="M640.071 464.594L626.752 465.867L615.354 416.535L635.013 414.657L640.071 464.594Z" fill="#FEB8B8"/>
<path d="M616.853 463.083L642.537 460.624L644.13 476.343L602.276 480.35C601.853 476.182 603.152 472.021 605.885 468.783C608.619 465.545 612.564 463.495 616.852 463.083H616.853Z" fill="#2F2E41"/>
<path d="M591.743 122.443C606.552 122.443 618.557 110.774 618.557 96.3796C618.557 81.985 606.552 70.316 591.743 70.316C576.934 70.316 564.929 81.985 564.929 96.3796C564.929 110.774 576.934 122.443 591.743 122.443Z" fill="#FEB8B8"/>
<path d="M571.64 458.12C570.49 458.123 569.375 457.73 568.494 457.012C567.612 456.293 567.019 455.295 566.82 454.194C559.897 416.82 537.247 294.592 536.705 291.203C536.693 291.125 536.687 291.047 536.688 290.968V281.853C536.687 281.521 536.793 281.198 536.992 280.928L539.984 276.858C540.126 276.662 540.312 276.5 540.529 276.386C540.745 276.271 540.986 276.205 541.233 276.195C558.29 275.418 614.144 273.14 616.842 276.417C619.552 279.706 618.589 289.689 618.37 291.655L618.381 291.86L643.476 447.853C643.673 449.097 643.357 450.367 642.598 451.386C641.838 452.406 640.696 453.094 639.419 453.302L623.746 455.811C622.578 455.994 621.382 455.763 620.376 455.16C619.369 454.558 618.618 453.624 618.259 452.529C613.412 437.473 597.157 386.823 591.524 367.223C591.493 367.094 591.414 366.981 591.301 366.906C591.189 366.831 591.052 366.8 590.917 366.819C590.782 366.838 590.659 366.905 590.573 367.008C590.487 367.111 590.444 367.242 590.453 367.374C590.734 386.057 591.414 433.723 591.654 450.186L591.679 451.959C591.689 453.16 591.236 454.32 590.408 455.212C589.581 456.103 588.44 456.66 587.21 456.773L572.097 458.104C571.945 458.117 571.793 458.122 571.64 458.12Z" fill="#2F2E41"/>
<path d="M574.724 132.692C570.045 135.396 567.245 140.364 565.638 145.429C562.663 154.79 560.873 164.468 560.306 174.25L558.607 203.536L537.585 281.183C555.806 296.168 566.314 292.762 590.841 280.505C615.368 268.248 618.17 284.591 618.17 284.591L623.074 218.524L630.081 146.329C628.508 144.488 626.727 142.825 624.773 141.37C618.296 136.473 610.761 133.07 602.734 131.415C594.708 129.761 586.4 129.899 578.437 131.819L574.724 132.692Z" fill="#E6E6E6"/>
<path d="M567.897 223.367C568.462 223.572 569.01 223.821 569.535 224.11L617.953 200.552L618.757 187.79L638.729 186.452L639.799 215.542L575.096 236.343C574.568 238.547 573.362 240.543 571.639 242.064C569.916 243.586 567.757 244.561 565.449 244.861C563.142 245.16 560.795 244.77 558.722 243.741C556.648 242.713 554.946 241.095 553.841 239.103C552.737 237.111 552.282 234.84 552.538 232.591C552.795 230.342 553.749 228.222 555.275 226.513C556.801 224.804 558.827 223.587 561.081 223.025C563.336 222.462 565.714 222.58 567.898 223.363L567.897 223.367Z" fill="#FEB8B8"/>
<path d="M629.732 146.655C641.644 150.741 643.744 195.018 643.744 195.018C629.729 187.525 612.912 199.785 612.912 199.785C612.912 199.785 609.409 188.205 605.204 173.222C603.934 169.007 603.783 164.549 604.763 160.261C605.743 155.974 607.823 151.998 610.809 148.702C610.809 148.702 617.819 142.566 629.732 146.655Z" fill="#E6E6E6"/>
<path d="M615.781 103.27C612.44 100.672 607.882 105.392 607.882 105.392L605.21 82.0172C605.21 82.0172 588.506 83.9624 577.813 81.3676C567.12 78.7727 565.452 90.7882 565.452 90.7882C564.901 85.9358 564.789 81.0456 565.118 76.1741C565.786 70.3288 574.472 64.4835 589.84 60.5863C605.208 56.6892 613.226 73.5763 613.226 73.5763C623.923 78.7682 619.126 105.871 615.781 103.27Z" fill="#2F2E41"/>
<path d="M664 480.349H92.2666V482H664V480.349Z" fill="#E6E6E6"/>
<path d="M147.421 451.203C149.868 452.039 152.495 452.248 155.048 451.811C157.602 451.373 159.997 450.304 162.003 448.706C167.11 444.54 168.711 437.675 170.014 431.319L173.867 412.519L165.8 417.919C159.998 421.802 154.065 425.81 150.047 431.434C146.03 437.059 144.277 444.737 147.504 450.823" fill="#E6E6E6"/>
<path d="M148.668 475.272C147.652 468.081 146.608 460.797 147.32 453.529C147.953 447.074 149.979 440.77 154.104 435.601C156.293 432.862 158.957 430.516 161.976 428.667C162.763 428.184 163.488 429.397 162.704 429.877C157.48 433.086 153.438 437.824 151.163 443.409C148.651 449.62 148.248 456.39 148.682 462.987C148.944 466.977 149.498 470.94 150.057 474.898C150.101 475.077 150.074 475.266 149.98 475.426C149.887 475.586 149.734 475.706 149.554 475.76C149.369 475.809 149.173 475.784 149.007 475.693C148.84 475.601 148.718 475.449 148.666 475.271L148.668 475.272Z" fill="#F2F2F2"/>
<path d="M155.977 463.734C157.026 465.284 158.468 466.545 160.164 467.396C161.861 468.247 163.754 468.659 165.661 468.593C170.564 468.366 174.652 465.041 178.331 461.885L189.214 452.546L182.011 452.211C176.832 451.97 171.518 451.745 166.582 453.298C161.645 454.85 157.098 458.587 156.197 463.548" fill="#E6E6E6"/>
<path d="M145.797 479.406C150.682 470.998 156.356 461.654 166.488 458.667C169.305 457.839 172.259 457.543 175.19 457.793C176.114 457.869 175.883 459.256 174.958 459.178C170.043 458.781 165.139 460.043 161.069 462.749C157.153 465.34 154.104 468.942 151.524 472.762C149.943 475.099 148.527 477.541 147.112 479.977C146.66 480.755 145.342 480.193 145.797 479.406Z" fill="#F2F2F2"/>
<path d="M490.348 236.805H245.578C244.376 236.803 243.224 236.339 242.374 235.513C241.524 234.687 241.046 233.567 241.045 232.399V173.381C241.046 172.213 241.524 171.093 242.374 170.267C243.224 169.441 244.376 168.976 245.578 168.975H490.348C491.55 168.976 492.702 169.441 493.551 170.267C494.401 171.093 494.879 172.213 494.881 173.381V232.399C494.879 233.567 494.401 234.687 493.551 235.513C492.702 236.339 491.55 236.803 490.348 236.805ZM245.578 170.738C244.857 170.739 244.165 171.017 243.655 171.513C243.145 172.009 242.859 172.681 242.858 173.382V232.399C242.858 233.1 243.145 233.773 243.655 234.268C244.165 234.764 244.856 235.043 245.578 235.043H490.348C491.069 235.043 491.76 234.764 492.27 234.268C492.78 233.773 493.067 233.1 493.068 232.399V173.381C493.067 172.68 492.78 172.008 492.27 171.512C491.76 171.016 491.069 170.738 490.348 170.737L245.578 170.738Z" fill="#E6E6E6"/>
<path d="M326.254 188.66C325.438 188.66 324.655 188.975 324.078 189.536C323.501 190.097 323.177 190.858 323.177 191.651C323.177 192.444 323.501 193.205 324.078 193.766C324.655 194.327 325.438 194.642 326.254 194.642H471.329C472.145 194.642 472.928 194.327 473.505 193.766C474.082 193.205 474.406 192.444 474.406 191.651C474.406 190.858 474.082 190.097 473.505 189.536C472.928 188.975 472.145 188.66 471.329 188.66H326.254Z" fill="#E6E6E6"/>
<path d="M326.254 206.608C325.438 206.608 324.655 206.923 324.078 207.484C323.501 208.045 323.177 208.806 323.177 209.599C323.177 210.393 323.501 211.153 324.078 211.714C324.655 212.275 325.438 212.59 326.254 212.59H388.68C389.496 212.59 390.279 212.275 390.856 211.714C391.433 211.153 391.757 210.393 391.757 209.599C391.757 208.806 391.433 208.045 390.856 207.484C390.279 206.923 389.496 206.608 388.68 206.608H326.254Z" fill="#E6E6E6"/>
<path d="M283.784 218.437C293.981 218.437 302.248 210.401 302.248 200.489C302.248 190.577 293.981 182.542 283.784 182.542C273.586 182.542 265.319 190.577 265.319 200.489C265.319 210.401 273.586 218.437 283.784 218.437Z" fill="#E6E6E6"/>
<path d="M280.881 210.464C280.261 210.465 279.657 210.269 279.161 209.907L279.13 209.885L272.65 205.066C272.043 204.614 271.646 203.947 271.545 203.21C271.445 202.474 271.65 201.729 272.115 201.139C272.579 200.55 273.266 200.164 274.024 200.066C274.781 199.969 275.548 200.168 276.154 200.619L280.352 203.748L290.271 191.169C290.736 190.581 291.422 190.195 292.178 190.098C292.935 190.001 293.701 190.2 294.307 190.651L294.245 190.734L294.309 190.651C294.914 191.103 295.31 191.77 295.41 192.506C295.51 193.241 295.306 193.985 294.842 194.574L283.175 209.372C282.905 209.712 282.558 209.988 282.161 210.177C281.764 210.366 281.327 210.464 280.885 210.463L280.881 210.464Z" fill="#6C63FF"/>
</g>
<path d="M129.844 14.5039C129.844 13.7161 129.567 13.0944 129.014 12.6387C128.46 12.1764 127.448 11.7402 125.977 11.3301C124.505 10.9134 123.431 10.4609 122.754 9.97266C121.79 9.28255 121.309 8.3776 121.309 7.25781C121.309 6.17057 121.755 5.28841 122.646 4.61133C123.545 3.92773 124.691 3.58594 126.084 3.58594C127.028 3.58594 127.871 3.76823 128.613 4.13281C129.362 4.4974 129.941 5.00521 130.352 5.65625C130.762 6.30729 130.967 7.0332 130.967 7.83398H129.756C129.756 6.86393 129.424 6.08594 128.76 5.5C128.096 4.90755 127.204 4.61133 126.084 4.61133C124.997 4.61133 124.131 4.85547 123.486 5.34375C122.842 5.82552 122.52 6.45703 122.52 7.23828C122.52 7.96094 122.809 8.55013 123.389 9.00586C123.968 9.46159 124.896 9.86523 126.172 10.2168C127.448 10.5618 128.415 10.9232 129.072 11.3008C129.73 11.6719 130.225 12.1178 130.557 12.6387C130.889 13.1595 131.055 13.7747 131.055 14.4844C131.055 15.6042 130.605 16.5026 129.707 17.1797C128.815 17.8568 127.637 18.1953 126.172 18.1953C125.169 18.1953 124.248 18.0163 123.408 17.6582C122.575 17.3001 121.94 16.7988 121.504 16.1543C121.074 15.5098 120.859 14.7708 120.859 13.9375H122.061C122.061 14.9401 122.435 15.7311 123.184 16.3105C123.932 16.89 124.928 17.1797 126.172 17.1797C127.279 17.1797 128.167 16.9355 128.838 16.4473C129.508 15.959 129.844 15.3112 129.844 14.5039ZM137.471 18.1953C136.572 18.1953 135.758 17.974 135.029 17.5312C134.307 17.0885 133.743 16.4733 133.34 15.6855C132.936 14.8913 132.734 14.0026 132.734 13.0195V12.5996C132.734 11.584 132.93 10.6693 133.32 9.85547C133.717 9.04167 134.268 8.40365 134.971 7.94141C135.674 7.47266 136.436 7.23828 137.256 7.23828C138.538 7.23828 139.554 7.67773 140.303 8.55664C141.058 9.42904 141.436 10.6237 141.436 12.1406V12.7949H133.896V13.0195C133.896 14.2174 134.238 15.2168 134.922 16.0176C135.612 16.8118 136.478 17.209 137.52 17.209C138.145 17.209 138.695 17.0951 139.17 16.8672C139.652 16.6393 140.088 16.2747 140.479 15.7734L141.211 16.3301C140.352 17.5736 139.105 18.1953 137.471 18.1953ZM137.256 8.23438C136.377 8.23438 135.635 8.55664 135.029 9.20117C134.43 9.8457 134.066 10.7116 133.936 11.7988H140.273V11.6719C140.241 10.6562 139.951 9.82943 139.404 9.19141C138.857 8.55339 138.141 8.23438 137.256 8.23438ZM145.02 18H143.848V3H145.02V18ZM152.295 18.1953C151.396 18.1953 150.583 17.974 149.854 17.5312C149.131 17.0885 148.568 16.4733 148.164 15.6855C147.76 14.8913 147.559 14.0026 147.559 13.0195V12.5996C147.559 11.584 147.754 10.6693 148.145 9.85547C148.542 9.04167 149.092 8.40365 149.795 7.94141C150.498 7.47266 151.26 7.23828 152.08 7.23828C153.363 7.23828 154.378 7.67773 155.127 8.55664C155.882 9.42904 156.26 10.6237 156.26 12.1406V12.7949H148.721V13.0195C148.721 14.2174 149.062 15.2168 149.746 16.0176C150.436 16.8118 151.302 17.209 152.344 17.209C152.969 17.209 153.519 17.0951 153.994 16.8672C154.476 16.6393 154.912 16.2747 155.303 15.7734L156.035 16.3301C155.176 17.5736 153.929 18.1953 152.295 18.1953ZM152.08 8.23438C151.201 8.23438 150.459 8.55664 149.854 9.20117C149.255 9.8457 148.89 10.7116 148.76 11.7988H155.098V11.6719C155.065 10.6562 154.775 9.82943 154.229 9.19141C153.682 8.55339 152.965 8.23438 152.08 8.23438ZM162.441 17.209C163.255 17.209 163.936 16.9811 164.482 16.5254C165.036 16.0632 165.335 15.4674 165.381 14.7383H166.504C166.471 15.3828 166.27 15.972 165.898 16.5059C165.527 17.0332 165.033 17.4466 164.414 17.7461C163.802 18.0456 163.145 18.1953 162.441 18.1953C161.055 18.1953 159.954 17.7135 159.141 16.75C158.333 15.7865 157.93 14.4909 157.93 12.8633V12.5117C157.93 11.4701 158.112 10.5488 158.477 9.74805C158.841 8.94727 159.362 8.32878 160.039 7.89258C160.723 7.45638 161.52 7.23828 162.432 7.23828C163.59 7.23828 164.544 7.58333 165.293 8.27344C166.048 8.96354 166.452 9.87174 166.504 10.998H165.381C165.329 10.1712 165.029 9.50391 164.482 8.99609C163.942 8.48828 163.258 8.23438 162.432 8.23438C161.377 8.23438 160.557 8.61523 159.971 9.37695C159.391 10.1387 159.102 11.2064 159.102 12.5801V12.9219C159.102 14.2695 159.391 15.321 159.971 16.0762C160.557 16.8314 161.38 17.209 162.441 17.209ZM172.754 17.209C173.568 17.209 174.248 16.9811 174.795 16.5254C175.348 16.0632 175.648 15.4674 175.693 14.7383H176.816C176.784 15.3828 176.582 15.972 176.211 16.5059C175.84 17.0332 175.345 17.4466 174.727 17.7461C174.115 18.0456 173.457 18.1953 172.754 18.1953C171.367 18.1953 170.267 17.7135 169.453 16.75C168.646 15.7865 168.242 14.4909 168.242 12.8633V12.5117C168.242 11.4701 168.424 10.5488 168.789 9.74805C169.154 8.94727 169.674 8.32878 170.352 7.89258C171.035 7.45638 171.833 7.23828 172.744 7.23828C173.903 7.23828 174.857 7.58333 175.605 8.27344C176.361 8.96354 176.764 9.87174 176.816 10.998H175.693C175.641 10.1712 175.342 9.50391 174.795 8.99609C174.255 8.48828 173.571 8.23438 172.744 8.23438C171.689 8.23438 170.869 8.61523 170.283 9.37695C169.704 10.1387 169.414 11.2064 169.414 12.5801V12.9219C169.414 14.2695 169.704 15.321 170.283 16.0762C170.869 16.8314 171.693 17.209 172.754 17.209ZM180.469 18H179.297V7.43359H180.469V18ZM179.092 4.37695C179.092 4.1556 179.163 3.97005 179.307 3.82031C179.45 3.66406 179.645 3.58594 179.893 3.58594C180.14 3.58594 180.335 3.66406 180.479 3.82031C180.628 3.97005 180.703 4.1556 180.703 4.37695C180.703 4.59831 180.628 4.78385 180.479 4.93359C180.335 5.08333 180.14 5.1582 179.893 5.1582C179.645 5.1582 179.45 5.08333 179.307 4.93359C179.163 4.78385 179.092 4.59831 179.092 4.37695ZM183.008 12.5605C183.008 11.5449 183.203 10.6302 183.594 9.81641C183.991 9.0026 184.548 8.37109 185.264 7.92188C185.986 7.46615 186.803 7.23828 187.715 7.23828C189.121 7.23828 190.26 7.73307 191.133 8.72266C192.005 9.70573 192.441 11.0111 192.441 12.6387V12.8828C192.441 13.9049 192.243 14.8262 191.846 15.6465C191.455 16.4603 190.902 17.0885 190.186 17.5312C189.469 17.974 188.652 18.1953 187.734 18.1953C186.335 18.1953 185.195 17.7038 184.316 16.7207C183.444 15.7311 183.008 14.4225 183.008 12.7949V12.5605ZM184.18 12.8828C184.18 14.1458 184.505 15.1842 185.156 15.998C185.814 16.8053 186.673 17.209 187.734 17.209C188.789 17.209 189.642 16.8053 190.293 15.998C190.951 15.1842 191.279 14.1133 191.279 12.7852V12.5605C191.279 11.7533 191.13 11.0143 190.83 10.3438C190.531 9.67318 190.111 9.1556 189.57 8.79102C189.03 8.41992 188.411 8.23438 187.715 8.23438C186.673 8.23438 185.824 8.64453 185.166 9.46484C184.508 10.2786 184.18 11.3464 184.18 12.668V12.8828ZM195.977 7.43359L196.016 9.24023C196.413 8.58919 196.908 8.0944 197.5 7.75586C198.092 7.41081 198.747 7.23828 199.463 7.23828C200.596 7.23828 201.439 7.55729 201.992 8.19531C202.546 8.83333 202.826 9.79036 202.832 11.0664V18H201.67V11.0566C201.663 10.1126 201.462 9.40951 201.064 8.94727C200.674 8.48503 200.046 8.25391 199.18 8.25391C198.457 8.25391 197.816 8.48177 197.256 8.9375C196.702 9.38672 196.292 9.99544 196.025 10.7637V18H194.863V7.43359H195.977ZM209.951 18.1953C209.053 18.1953 208.239 17.974 207.51 17.5312C206.787 17.0885 206.224 16.4733 205.82 15.6855C205.417 14.8913 205.215 14.0026 205.215 13.0195V12.5996C205.215 11.584 205.41 10.6693 205.801 9.85547C206.198 9.04167 206.748 8.40365 207.451 7.94141C208.154 7.47266 208.916 7.23828 209.736 7.23828C211.019 7.23828 212.035 7.67773 212.783 8.55664C213.538 9.42904 213.916 10.6237 213.916 12.1406V12.7949H206.377V13.0195C206.377 14.2174 206.719 15.2168 207.402 16.0176C208.092 16.8118 208.958 17.209 210 17.209C210.625 17.209 211.175 17.0951 211.65 16.8672C212.132 16.6393 212.568 16.2747 212.959 15.7734L213.691 16.3301C212.832 17.5736 211.585 18.1953 209.951 18.1953ZM209.736 8.23438C208.857 8.23438 208.115 8.55664 207.51 9.20117C206.911 9.8457 206.546 10.7116 206.416 11.7988H212.754V11.6719C212.721 10.6562 212.432 9.82943 211.885 9.19141C211.338 8.55339 210.622 8.23438 209.736 8.23438ZM220.41 12.5605C220.41 11.5449 220.605 10.6302 220.996 9.81641C221.393 9.0026 221.95 8.37109 222.666 7.92188C223.389 7.46615 224.206 7.23828 225.117 7.23828C226.523 7.23828 227.663 7.73307 228.535 8.72266C229.408 9.70573 229.844 11.0111 229.844 12.6387V12.8828C229.844 13.9049 229.645 14.8262 229.248 15.6465C228.857 16.4603 228.304 17.0885 227.588 17.5312C226.872 17.974 226.055 18.1953 225.137 18.1953C223.737 18.1953 222.598 17.7038 221.719 16.7207C220.846 15.7311 220.41 14.4225 220.41 12.7949V12.5605ZM221.582 12.8828C221.582 14.1458 221.908 15.1842 222.559 15.998C223.216 16.8053 224.076 17.209 225.137 17.209C226.191 17.209 227.044 16.8053 227.695 15.998C228.353 15.1842 228.682 14.1133 228.682 12.7852V12.5605C228.682 11.7533 228.532 11.0143 228.232 10.3438C227.933 9.67318 227.513 9.1556 226.973 8.79102C226.432 8.41992 225.814 8.23438 225.117 8.23438C224.076 8.23438 223.226 8.64453 222.568 9.46484C221.911 10.2786 221.582 11.3464 221.582 12.668V12.8828ZM245.635 12.8242C245.635 14.4714 245.27 15.7799 244.541 16.75C243.812 17.7135 242.832 18.1953 241.602 18.1953C240.13 18.1953 239.017 17.6484 238.262 16.5547L238.213 18H237.119V3H238.281V8.9668C239.023 7.81445 240.124 7.23828 241.582 7.23828C242.832 7.23828 243.818 7.7168 244.541 8.67383C245.27 9.62435 245.635 10.9492 245.635 12.6484V12.8242ZM244.463 12.6191C244.463 11.2259 244.193 10.1517 243.652 9.39648C243.112 8.63477 242.35 8.25391 241.367 8.25391C240.618 8.25391 239.984 8.43945 239.463 8.81055C238.942 9.17513 238.548 9.71224 238.281 10.4219V15.1875C238.867 16.5156 239.902 17.1797 241.387 17.1797C242.35 17.1797 243.102 16.7988 243.643 16.0371C244.189 15.2754 244.463 14.1361 244.463 12.6191ZM255.02 16.6621C254.316 17.6842 253.193 18.1953 251.65 18.1953C250.524 18.1953 249.668 17.8698 249.082 17.2188C248.496 16.5612 248.197 15.5911 248.184 14.3086V7.43359H249.346V14.1621C249.346 16.1738 250.16 17.1797 251.787 17.1797C253.48 17.1797 254.551 16.4798 255 15.0801V7.43359H256.172V18H255.039L255.02 16.6621ZM265.547 15.3145C265.547 14.735 265.312 14.2695 264.844 13.918C264.382 13.5664 263.682 13.293 262.744 13.0977C261.807 12.8958 261.077 12.668 260.557 12.4141C260.042 12.1536 259.658 11.8379 259.404 11.4668C259.157 11.0957 259.033 10.6465 259.033 10.1191C259.033 9.28581 259.382 8.59896 260.078 8.05859C260.775 7.51172 261.667 7.23828 262.754 7.23828C263.932 7.23828 264.876 7.53125 265.586 8.11719C266.302 8.69661 266.66 9.45508 266.66 10.3926H265.488C265.488 9.77409 265.228 9.25977 264.707 8.84961C264.193 8.43945 263.542 8.23438 262.754 8.23438C261.986 8.23438 261.367 8.4069 260.898 8.75195C260.436 9.09049 260.205 9.5332 260.205 10.0801C260.205 10.6074 260.397 11.0176 260.781 11.3105C261.172 11.597 261.878 11.8607 262.9 12.1016C263.929 12.3424 264.697 12.5996 265.205 12.873C265.719 13.1465 266.1 13.4753 266.348 13.8594C266.595 14.2435 266.719 14.709 266.719 15.2559C266.719 16.1478 266.357 16.8607 265.635 17.3945C264.919 17.9284 263.981 18.1953 262.822 18.1953C261.592 18.1953 260.592 17.8991 259.824 17.3066C259.062 16.7077 258.682 15.9525 258.682 15.041H259.854C259.899 15.7246 260.186 16.2585 260.713 16.6426C261.247 17.0202 261.95 17.209 262.822 17.209C263.636 17.209 264.294 17.0299 264.795 16.6719C265.296 16.3138 265.547 15.8613 265.547 15.3145ZM268.887 12.6191C268.887 10.9655 269.251 9.6569 269.98 8.69336C270.716 7.72331 271.719 7.23828 272.988 7.23828C274.414 7.23828 275.498 7.7819 276.24 8.86914L276.299 7.43359H277.393V22.0625H276.221V16.6914C275.452 17.694 274.368 18.1953 272.969 18.1953C271.732 18.1953 270.742 17.707 270 16.7305C269.258 15.7539 268.887 14.4355 268.887 12.7754V12.6191ZM270.068 12.8242C270.068 14.1914 270.342 15.2656 270.889 16.0469C271.442 16.8216 272.207 17.209 273.184 17.209C274.583 17.209 275.596 16.6003 276.221 15.3828V10.207C275.928 9.57552 275.521 9.09049 275 8.75195C274.486 8.4069 273.887 8.23438 273.203 8.23438C272.22 8.23438 271.452 8.625 270.898 9.40625C270.345 10.181 270.068 11.3203 270.068 12.8242ZM287.305 16.6621C286.602 17.6842 285.479 18.1953 283.936 18.1953C282.809 18.1953 281.953 17.8698 281.367 17.2188C280.781 16.5612 280.482 15.5911 280.469 14.3086V7.43359H281.631V14.1621C281.631 16.1738 282.445 17.1797 284.072 17.1797C285.765 17.1797 286.836 16.4798 287.285 15.0801V7.43359H288.457V18H287.324L287.305 16.6621ZM295.596 18.1953C294.697 18.1953 293.883 17.974 293.154 17.5312C292.432 17.0885 291.868 16.4733 291.465 15.6855C291.061 14.8913 290.859 14.0026 290.859 13.0195V12.5996C290.859 11.584 291.055 10.6693 291.445 9.85547C291.842 9.04167 292.393 8.40365 293.096 7.94141C293.799 7.47266 294.561 7.23828 295.381 7.23828C296.663 7.23828 297.679 7.67773 298.428 8.55664C299.183 9.42904 299.561 10.6237 299.561 12.1406V12.7949H292.021V13.0195C292.021 14.2174 292.363 15.2168 293.047 16.0176C293.737 16.8118 294.603 17.209 295.645 17.209C296.27 17.209 296.82 17.0951 297.295 16.8672C297.777 16.6393 298.213 16.2747 298.604 15.7734L299.336 16.3301C298.477 17.5736 297.23 18.1953 295.596 18.1953ZM295.381 8.23438C294.502 8.23438 293.76 8.55664 293.154 9.20117C292.555 9.8457 292.191 10.7116 292.061 11.7988H298.398V11.6719C298.366 10.6562 298.076 9.82943 297.529 9.19141C296.982 8.55339 296.266 8.23438 295.381 8.23438ZM308.008 18H306.836V3H308.008V18ZM317.861 18C317.744 17.668 317.669 17.1764 317.637 16.5254C317.227 17.0592 316.702 17.4727 316.064 17.7656C315.433 18.0521 314.762 18.1953 314.053 18.1953C313.037 18.1953 312.214 17.9121 311.582 17.3457C310.957 16.7793 310.645 16.0632 310.645 15.1973C310.645 14.1686 311.071 13.3548 311.924 12.7559C312.783 12.1569 313.978 11.8574 315.508 11.8574H317.627V10.6562C317.627 9.90104 317.393 9.30859 316.924 8.87891C316.462 8.44271 315.785 8.22461 314.893 8.22461C314.079 8.22461 313.405 8.43294 312.871 8.84961C312.337 9.26628 312.07 9.76758 312.07 10.3535L310.898 10.3438C310.898 9.50391 311.289 8.77799 312.07 8.16602C312.852 7.54753 313.812 7.23828 314.951 7.23828C316.13 7.23828 317.057 7.53451 317.734 8.12695C318.418 8.71289 318.77 9.5332 318.789 10.5879V15.5879C318.789 16.61 318.896 17.375 319.111 17.8828V18H317.861ZM314.189 17.1602C314.971 17.1602 315.667 16.9714 316.279 16.5938C316.898 16.2161 317.347 15.7116 317.627 15.0801V12.7559H315.537C314.372 12.7689 313.46 12.9837 312.803 13.4004C312.145 13.8105 311.816 14.377 311.816 15.0996C311.816 15.6921 312.035 16.1836 312.471 16.5742C312.913 16.9648 313.486 17.1602 314.189 17.1602ZM333.447 18C333.33 17.668 333.255 17.1764 333.223 16.5254C332.812 17.0592 332.288 17.4727 331.65 17.7656C331.019 18.0521 330.348 18.1953 329.639 18.1953C328.623 18.1953 327.799 17.9121 327.168 17.3457C326.543 16.7793 326.23 16.0632 326.23 15.1973C326.23 14.1686 326.657 13.3548 327.51 12.7559C328.369 12.1569 329.564 11.8574 331.094 11.8574H333.213V10.6562C333.213 9.90104 332.979 9.30859 332.51 8.87891C332.048 8.44271 331.37 8.22461 330.479 8.22461C329.665 8.22461 328.991 8.43294 328.457 8.84961C327.923 9.26628 327.656 9.76758 327.656 10.3535L326.484 10.3438C326.484 9.50391 326.875 8.77799 327.656 8.16602C328.438 7.54753 329.398 7.23828 330.537 7.23828C331.715 7.23828 332.643 7.53451 333.32 8.12695C334.004 8.71289 334.355 9.5332 334.375 10.5879V15.5879C334.375 16.61 334.482 17.375 334.697 17.8828V18H333.447ZM329.775 17.1602C330.557 17.1602 331.253 16.9714 331.865 16.5938C332.484 16.2161 332.933 15.7116 333.213 15.0801V12.7559H331.123C329.958 12.7689 329.046 12.9837 328.389 13.4004C327.731 13.8105 327.402 14.377 327.402 15.0996C327.402 15.6921 327.62 16.1836 328.057 16.5742C328.499 16.9648 329.072 17.1602 329.775 17.1602ZM341.406 17.209C342.22 17.209 342.9 16.9811 343.447 16.5254C344.001 16.0632 344.3 15.4674 344.346 14.7383H345.469C345.436 15.3828 345.234 15.972 344.863 16.5059C344.492 17.0332 343.997 17.4466 343.379 17.7461C342.767 18.0456 342.109 18.1953 341.406 18.1953C340.02 18.1953 338.919 17.7135 338.105 16.75C337.298 15.7865 336.895 14.4909 336.895 12.8633V12.5117C336.895 11.4701 337.077 10.5488 337.441 9.74805C337.806 8.94727 338.327 8.32878 339.004 7.89258C339.688 7.45638 340.485 7.23828 341.396 7.23828C342.555 7.23828 343.509 7.58333 344.258 8.27344C345.013 8.96354 345.417 9.87174 345.469 10.998H344.346C344.294 10.1712 343.994 9.50391 343.447 8.99609C342.907 8.48828 342.223 8.23438 341.396 8.23438C340.342 8.23438 339.521 8.61523 338.936 9.37695C338.356 10.1387 338.066 11.2064 338.066 12.5801V12.9219C338.066 14.2695 338.356 15.321 338.936 16.0762C339.521 16.8314 340.345 17.209 341.406 17.209ZM349.629 4.72852V7.43359H351.816V8.39062H349.629V15.4316C349.629 16.0176 349.733 16.4538 349.941 16.7402C350.156 17.0267 350.511 17.1699 351.006 17.1699C351.201 17.1699 351.517 17.1374 351.953 17.0723L352.002 18.0293C351.696 18.14 351.279 18.1953 350.752 18.1953C349.951 18.1953 349.368 17.9642 349.004 17.502C348.639 17.0332 348.457 16.3464 348.457 15.4414V8.39062H346.514V7.43359H348.457V4.72852H349.629ZM355.547 18H354.375V7.43359H355.547V18ZM354.17 4.37695C354.17 4.1556 354.242 3.97005 354.385 3.82031C354.528 3.66406 354.723 3.58594 354.971 3.58594C355.218 3.58594 355.413 3.66406 355.557 3.82031C355.706 3.97005 355.781 4.1556 355.781 4.37695C355.781 4.59831 355.706 4.78385 355.557 4.93359C355.413 5.08333 355.218 5.1582 354.971 5.1582C354.723 5.1582 354.528 5.08333 354.385 4.93359C354.242 4.78385 354.17 4.59831 354.17 4.37695ZM362.021 16.3887L365.234 7.43359H366.436L362.49 18H361.543L357.578 7.43359H358.779L362.021 16.3887ZM369.668 18H368.496V7.43359H369.668V18ZM368.291 4.37695C368.291 4.1556 368.363 3.97005 368.506 3.82031C368.649 3.66406 368.844 3.58594 369.092 3.58594C369.339 3.58594 369.535 3.66406 369.678 3.82031C369.827 3.97005 369.902 4.1556 369.902 4.37695C369.902 4.59831 369.827 4.78385 369.678 4.93359C369.535 5.08333 369.339 5.1582 369.092 5.1582C368.844 5.1582 368.649 5.08333 368.506 4.93359C368.363 4.78385 368.291 4.59831 368.291 4.37695ZM372.383 12.6191C372.383 10.9785 372.747 9.67318 373.477 8.70312C374.212 7.72656 375.208 7.23828 376.465 7.23828C377.891 7.23828 378.978 7.80143 379.727 8.92773V3H380.889V18H379.795L379.746 16.5938C378.997 17.6615 377.897 18.1953 376.445 18.1953C375.228 18.1953 374.245 17.707 373.496 16.7305C372.754 15.7474 372.383 14.4225 372.383 12.7559V12.6191ZM373.564 12.8242C373.564 14.1719 373.835 15.2363 374.375 16.0176C374.915 16.7923 375.677 17.1797 376.66 17.1797C378.099 17.1797 379.121 16.5449 379.727 15.2754V10.3145C379.121 8.94076 378.105 8.25391 376.68 8.25391C375.697 8.25391 374.932 8.64128 374.385 9.41602C373.838 10.1842 373.564 11.3203 373.564 12.8242ZM390.635 18C390.518 17.668 390.443 17.1764 390.41 16.5254C390 17.0592 389.476 17.4727 388.838 17.7656C388.206 18.0521 387.536 18.1953 386.826 18.1953C385.811 18.1953 384.987 17.9121 384.355 17.3457C383.73 16.7793 383.418 16.0632 383.418 15.1973C383.418 14.1686 383.844 13.3548 384.697 12.7559C385.557 12.1569 386.751 11.8574 388.281 11.8574H390.4V10.6562C390.4 9.90104 390.166 9.30859 389.697 8.87891C389.235 8.44271 388.558 8.22461 387.666 8.22461C386.852 8.22461 386.178 8.43294 385.645 8.84961C385.111 9.26628 384.844 9.76758 384.844 10.3535L383.672 10.3438C383.672 9.50391 384.062 8.77799 384.844 8.16602C385.625 7.54753 386.585 7.23828 387.725 7.23828C388.903 7.23828 389.831 7.53451 390.508 8.12695C391.191 8.71289 391.543 9.5332 391.562 10.5879V15.5879C391.562 16.61 391.67 17.375 391.885 17.8828V18H390.635ZM386.963 17.1602C387.744 17.1602 388.441 16.9714 389.053 16.5938C389.671 16.2161 390.12 15.7116 390.4 15.0801V12.7559H388.311C387.145 12.7689 386.234 12.9837 385.576 13.4004C384.919 13.8105 384.59 14.377 384.59 15.0996C384.59 15.6921 384.808 16.1836 385.244 16.5742C385.687 16.9648 386.26 17.1602 386.963 17.1602ZM394.219 12.6191C394.219 10.9785 394.583 9.67318 395.312 8.70312C396.048 7.72656 397.044 7.23828 398.301 7.23828C399.727 7.23828 400.814 7.80143 401.562 8.92773V3H402.725V18H401.631L401.582 16.5938C400.833 17.6615 399.733 18.1953 398.281 18.1953C397.064 18.1953 396.081 17.707 395.332 16.7305C394.59 15.7474 394.219 14.4225 394.219 12.7559V12.6191ZM395.4 12.8242C395.4 14.1719 395.671 15.2363 396.211 16.0176C396.751 16.7923 397.513 17.1797 398.496 17.1797C399.935 17.1797 400.957 16.5449 401.562 15.2754V10.3145C400.957 8.94076 399.941 8.25391 398.516 8.25391C397.533 8.25391 396.768 8.64128 396.221 9.41602C395.674 10.1842 395.4 11.3203 395.4 12.8242ZM410.195 12.6191C410.195 10.9655 410.56 9.6569 411.289 8.69336C412.025 7.72331 413.027 7.23828 414.297 7.23828C415.723 7.23828 416.807 7.7819 417.549 8.86914L417.607 7.43359H418.701V22.0625H417.529V16.6914C416.761 17.694 415.677 18.1953 414.277 18.1953C413.04 18.1953 412.051 17.707 411.309 16.7305C410.566 15.7539 410.195 14.4355 410.195 12.7754V12.6191ZM411.377 12.8242C411.377 14.1914 411.65 15.2656 412.197 16.0469C412.751 16.8216 413.516 17.209 414.492 17.209C415.892 17.209 416.904 16.6003 417.529 15.3828V10.207C417.236 9.57552 416.829 9.09049 416.309 8.75195C415.794 8.4069 415.195 8.23438 414.512 8.23438C413.529 8.23438 412.76 8.625 412.207 9.40625C411.654 10.181 411.377 11.3203 411.377 12.8242ZM428.613 16.6621C427.91 17.6842 426.787 18.1953 425.244 18.1953C424.118 18.1953 423.262 17.8698 422.676 17.2188C422.09 16.5612 421.79 15.5911 421.777 14.3086V7.43359H422.939V14.1621C422.939 16.1738 423.753 17.1797 425.381 17.1797C427.074 17.1797 428.145 16.4798 428.594 15.0801V7.43359H429.766V18H428.633L428.613 16.6621ZM436.904 18.1953C436.006 18.1953 435.192 17.974 434.463 17.5312C433.74 17.0885 433.177 16.4733 432.773 15.6855C432.37 14.8913 432.168 14.0026 432.168 13.0195V12.5996C432.168 11.584 432.363 10.6693 432.754 9.85547C433.151 9.04167 433.701 8.40365 434.404 7.94141C435.107 7.47266 435.869 7.23828 436.689 7.23828C437.972 7.23828 438.988 7.67773 439.736 8.55664C440.492 9.42904 440.869 10.6237 440.869 12.1406V12.7949H433.33V13.0195C433.33 14.2174 433.672 15.2168 434.355 16.0176C435.046 16.8118 435.911 17.209 436.953 17.209C437.578 17.209 438.128 17.0951 438.604 16.8672C439.085 16.6393 439.521 16.2747 439.912 15.7734L440.645 16.3301C439.785 17.5736 438.538 18.1953 436.904 18.1953ZM436.689 8.23438C435.811 8.23438 435.068 8.55664 434.463 9.20117C433.864 9.8457 433.499 10.7116 433.369 11.7988H439.707V11.6719C439.674 10.6562 439.385 9.82943 438.838 9.19141C438.291 8.55339 437.575 8.23438 436.689 8.23438ZM447.539 12.6191C447.539 10.9785 447.904 9.67318 448.633 8.70312C449.368 7.72656 450.365 7.23828 451.621 7.23828C453.047 7.23828 454.134 7.80143 454.883 8.92773V3H456.045V18H454.951L454.902 16.5938C454.154 17.6615 453.053 18.1953 451.602 18.1953C450.384 18.1953 449.401 17.707 448.652 16.7305C447.91 15.7474 447.539 14.4225 447.539 12.7559V12.6191ZM448.721 12.8242C448.721 14.1719 448.991 15.2363 449.531 16.0176C450.072 16.7923 450.833 17.1797 451.816 17.1797C453.255 17.1797 454.277 16.5449 454.883 15.2754V10.3145C454.277 8.94076 453.262 8.25391 451.836 8.25391C450.853 8.25391 450.088 8.64128 449.541 9.41602C448.994 10.1842 448.721 11.3203 448.721 12.8242ZM463.213 18.1953C462.314 18.1953 461.501 17.974 460.771 17.5312C460.049 17.0885 459.486 16.4733 459.082 15.6855C458.678 14.8913 458.477 14.0026 458.477 13.0195V12.5996C458.477 11.584 458.672 10.6693 459.062 9.85547C459.46 9.04167 460.01 8.40365 460.713 7.94141C461.416 7.47266 462.178 7.23828 462.998 7.23828C464.281 7.23828 465.296 7.67773 466.045 8.55664C466.8 9.42904 467.178 10.6237 467.178 12.1406V12.7949H459.639V13.0195C459.639 14.2174 459.98 15.2168 460.664 16.0176C461.354 16.8118 462.22 17.209 463.262 17.209C463.887 17.209 464.437 17.0951 464.912 16.8672C465.394 16.6393 465.83 16.2747 466.221 15.7734L466.953 16.3301C466.094 17.5736 464.847 18.1953 463.213 18.1953ZM462.998 8.23438C462.119 8.23438 461.377 8.55664 460.771 9.20117C460.173 9.8457 459.808 10.7116 459.678 11.7988H466.016V11.6719C465.983 10.6562 465.693 9.82943 465.146 9.19141C464.6 8.55339 463.883 8.23438 462.998 8.23438ZM475.781 15.3145C475.781 14.735 475.547 14.2695 475.078 13.918C474.616 13.5664 473.916 13.293 472.979 13.0977C472.041 12.8958 471.312 12.668 470.791 12.4141C470.277 12.1536 469.893 11.8379 469.639 11.4668C469.391 11.0957 469.268 10.6465 469.268 10.1191C469.268 9.28581 469.616 8.59896 470.312 8.05859C471.009 7.51172 471.901 7.23828 472.988 7.23828C474.167 7.23828 475.111 7.53125 475.82 8.11719C476.536 8.69661 476.895 9.45508 476.895 10.3926H475.723C475.723 9.77409 475.462 9.25977 474.941 8.84961C474.427 8.43945 473.776 8.23438 472.988 8.23438C472.22 8.23438 471.602 8.4069 471.133 8.75195C470.671 9.09049 470.439 9.5332 470.439 10.0801C470.439 10.6074 470.632 11.0176 471.016 11.3105C471.406 11.597 472.113 11.8607 473.135 12.1016C474.163 12.3424 474.932 12.5996 475.439 12.873C475.954 13.1465 476.335 13.4753 476.582 13.8594C476.829 14.2435 476.953 14.709 476.953 15.2559C476.953 16.1478 476.592 16.8607 475.869 17.3945C475.153 17.9284 474.215 18.1953 473.057 18.1953C471.826 18.1953 470.827 17.8991 470.059 17.3066C469.297 16.7077 468.916 15.9525 468.916 15.041H470.088C470.133 15.7246 470.42 16.2585 470.947 16.6426C471.481 17.0202 472.184 17.209 473.057 17.209C473.87 17.209 474.528 17.0299 475.029 16.6719C475.531 16.3138 475.781 15.8613 475.781 15.3145ZM483.682 18.1953C482.783 18.1953 481.969 17.974 481.24 17.5312C480.518 17.0885 479.954 16.4733 479.551 15.6855C479.147 14.8913 478.945 14.0026 478.945 13.0195V12.5996C478.945 11.584 479.141 10.6693 479.531 9.85547C479.928 9.04167 480.479 8.40365 481.182 7.94141C481.885 7.47266 482.646 7.23828 483.467 7.23828C484.749 7.23828 485.765 7.67773 486.514 8.55664C487.269 9.42904 487.646 10.6237 487.646 12.1406V12.7949H480.107V13.0195C480.107 14.2174 480.449 15.2168 481.133 16.0176C481.823 16.8118 482.689 17.209 483.73 17.209C484.355 17.209 484.906 17.0951 485.381 16.8672C485.863 16.6393 486.299 16.2747 486.689 15.7734L487.422 16.3301C486.562 17.5736 485.316 18.1953 483.682 18.1953ZM483.467 8.23438C482.588 8.23438 481.846 8.55664 481.24 9.20117C480.641 9.8457 480.277 10.7116 480.146 11.7988H486.484V11.6719C486.452 10.6562 486.162 9.82943 485.615 9.19141C485.068 8.55339 484.352 8.23438 483.467 8.23438ZM496.592 18C496.475 17.668 496.4 17.1764 496.367 16.5254C495.957 17.0592 495.433 17.4727 494.795 17.7656C494.163 18.0521 493.493 18.1953 492.783 18.1953C491.768 18.1953 490.944 17.9121 490.312 17.3457C489.688 16.7793 489.375 16.0632 489.375 15.1973C489.375 14.1686 489.801 13.3548 490.654 12.7559C491.514 12.1569 492.708 11.8574 494.238 11.8574H496.357V10.6562C496.357 9.90104 496.123 9.30859 495.654 8.87891C495.192 8.44271 494.515 8.22461 493.623 8.22461C492.809 8.22461 492.135 8.43294 491.602 8.84961C491.068 9.26628 490.801 9.76758 490.801 10.3535L489.629 10.3438C489.629 9.50391 490.02 8.77799 490.801 8.16602C491.582 7.54753 492.542 7.23828 493.682 7.23828C494.86 7.23828 495.788 7.53451 496.465 8.12695C497.148 8.71289 497.5 9.5332 497.52 10.5879V15.5879C497.52 16.61 497.627 17.375 497.842 17.8828V18H496.592ZM492.92 17.1602C493.701 17.1602 494.398 16.9714 495.01 16.5938C495.628 16.2161 496.077 15.7116 496.357 15.0801V12.7559H494.268C493.102 12.7689 492.191 12.9837 491.533 13.4004C490.876 13.8105 490.547 14.377 490.547 15.0996C490.547 15.6921 490.765 16.1836 491.201 16.5742C491.644 16.9648 492.217 17.1602 492.92 17.1602ZM510.391 8.42969C510.143 8.38411 509.88 8.36133 509.6 8.36133C508.87 8.36133 508.252 8.56641 507.744 8.97656C507.243 9.38021 506.885 9.9694 506.67 10.7441V18H505.508V7.43359H506.65L506.67 9.11328C507.288 7.86328 508.281 7.23828 509.648 7.23828C509.974 7.23828 510.231 7.2806 510.42 7.36523L510.391 8.42969ZM516.143 18.1953C515.244 18.1953 514.43 17.974 513.701 17.5312C512.979 17.0885 512.415 16.4733 512.012 15.6855C511.608 14.8913 511.406 14.0026 511.406 13.0195V12.5996C511.406 11.584 511.602 10.6693 511.992 9.85547C512.389 9.04167 512.939 8.40365 513.643 7.94141C514.346 7.47266 515.107 7.23828 515.928 7.23828C517.21 7.23828 518.226 7.67773 518.975 8.55664C519.73 9.42904 520.107 10.6237 520.107 12.1406V12.7949H512.568V13.0195C512.568 14.2174 512.91 15.2168 513.594 16.0176C514.284 16.8118 515.15 17.209 516.191 17.209C516.816 17.209 517.367 17.0951 517.842 16.8672C518.324 16.6393 518.76 16.2747 519.15 15.7734L519.883 16.3301C519.023 17.5736 517.777 18.1953 516.143 18.1953ZM515.928 8.23438C515.049 8.23438 514.307 8.55664 513.701 9.20117C513.102 9.8457 512.738 10.7116 512.607 11.7988H518.945V11.6719C518.913 10.6562 518.623 9.82943 518.076 9.19141C517.529 8.55339 516.813 8.23438 515.928 8.23438ZM529.053 18C528.936 17.668 528.861 17.1764 528.828 16.5254C528.418 17.0592 527.894 17.4727 527.256 17.7656C526.624 18.0521 525.954 18.1953 525.244 18.1953C524.229 18.1953 523.405 17.9121 522.773 17.3457C522.148 16.7793 521.836 16.0632 521.836 15.1973C521.836 14.1686 522.262 13.3548 523.115 12.7559C523.975 12.1569 525.169 11.8574 526.699 11.8574H528.818V10.6562C528.818 9.90104 528.584 9.30859 528.115 8.87891C527.653 8.44271 526.976 8.22461 526.084 8.22461C525.27 8.22461 524.596 8.43294 524.062 8.84961C523.529 9.26628 523.262 9.76758 523.262 10.3535L522.09 10.3438C522.09 9.50391 522.48 8.77799 523.262 8.16602C524.043 7.54753 525.003 7.23828 526.143 7.23828C527.321 7.23828 528.249 7.53451 528.926 8.12695C529.609 8.71289 529.961 9.5332 529.98 10.5879V15.5879C529.98 16.61 530.088 17.375 530.303 17.8828V18H529.053ZM525.381 17.1602C526.162 17.1602 526.859 16.9714 527.471 16.5938C528.089 16.2161 528.538 15.7116 528.818 15.0801V12.7559H526.729C525.563 12.7689 524.652 12.9837 523.994 13.4004C523.337 13.8105 523.008 14.377 523.008 15.0996C523.008 15.6921 523.226 16.1836 523.662 16.5742C524.105 16.9648 524.678 17.1602 525.381 17.1602ZM534.414 18H533.242V3H534.414V18ZM538.906 18H537.734V7.43359H538.906V18ZM537.529 4.37695C537.529 4.1556 537.601 3.97005 537.744 3.82031C537.887 3.66406 538.083 3.58594 538.33 3.58594C538.577 3.58594 538.773 3.66406 538.916 3.82031C539.066 3.97005 539.141 4.1556 539.141 4.37695C539.141 4.59831 539.066 4.78385 538.916 4.93359C538.773 5.08333 538.577 5.1582 538.33 5.1582C538.083 5.1582 537.887 5.08333 537.744 4.93359C537.601 4.78385 537.529 4.59831 537.529 4.37695ZM542.861 17.0137H549.727V18H541.416V17.1406L547.822 8.43945H541.611V7.43359H549.297V8.30273L542.861 17.0137ZM558.486 18C558.369 17.668 558.294 17.1764 558.262 16.5254C557.852 17.0592 557.327 17.4727 556.689 17.7656C556.058 18.0521 555.387 18.1953 554.678 18.1953C553.662 18.1953 552.839 17.9121 552.207 17.3457C551.582 16.7793 551.27 16.0632 551.27 15.1973C551.27 14.1686 551.696 13.3548 552.549 12.7559C553.408 12.1569 554.603 11.8574 556.133 11.8574H558.252V10.6562C558.252 9.90104 558.018 9.30859 557.549 8.87891C557.087 8.44271 556.41 8.22461 555.518 8.22461C554.704 8.22461 554.03 8.43294 553.496 8.84961C552.962 9.26628 552.695 9.76758 552.695 10.3535L551.523 10.3438C551.523 9.50391 551.914 8.77799 552.695 8.16602C553.477 7.54753 554.437 7.23828 555.576 7.23828C556.755 7.23828 557.682 7.53451 558.359 8.12695C559.043 8.71289 559.395 9.5332 559.414 10.5879V15.5879C559.414 16.61 559.521 17.375 559.736 17.8828V18H558.486ZM554.814 17.1602C555.596 17.1602 556.292 16.9714 556.904 16.5938C557.523 16.2161 557.972 15.7116 558.252 15.0801V12.7559H556.162C554.997 12.7689 554.085 12.9837 553.428 13.4004C552.77 13.8105 552.441 14.377 552.441 15.0996C552.441 15.6921 552.66 16.1836 553.096 16.5742C553.538 16.9648 554.111 17.1602 554.814 17.1602ZM567.422 8.42969C567.174 8.38411 566.911 8.36133 566.631 8.36133C565.902 8.36133 565.283 8.56641 564.775 8.97656C564.274 9.38021 563.916 9.9694 563.701 10.7441V18H562.539V7.43359H563.682L563.701 9.11328C564.32 7.86328 565.312 7.23828 566.68 7.23828C567.005 7.23828 567.262 7.2806 567.451 7.36523L567.422 8.42969Z" fill="#231F20"/>
<defs>
<clipPath id="clip0_1313_5202">
<rect width="664" height="422" fill="white" transform="translate(0 60)"/>
</clipPath>
</defs>
</svg>
