<svg width="51" height="50" viewBox="0 0 51 50" fill="none" xmlns="http://www.w3.org/2000/svg">
<circle cx="25.2725" cy="25" r="25" fill="#3A4E7A"/>
<path d="M22.7793 27.4912V32H20.1426V19.2031H25.1348C26.0957 19.2031 26.9395 19.3789 27.666 19.7305C28.3984 20.082 28.9609 20.583 29.3535 21.2334C29.7461 21.8779 29.9424 22.6133 29.9424 23.4395C29.9424 24.6934 29.5117 25.6836 28.6504 26.4102C27.7949 27.1309 26.6084 27.4912 25.0908 27.4912H22.7793ZM22.7793 25.3555H25.1348C25.832 25.3555 26.3623 25.1914 26.7256 24.8633C27.0947 24.5352 27.2793 24.0664 27.2793 23.457C27.2793 22.8301 27.0947 22.3232 26.7256 21.9365C26.3564 21.5498 25.8467 21.3506 25.1963 21.3389H22.7793V25.3555Z" fill="white"/>
</svg>
