<svg width="49" height="30" viewBox="0 0 49 30" fill="none" xmlns="http://www.w3.org/2000/svg">
<circle cx="15" cy="15" r="15" fill="#5E83BA"/>
<path d="M14.2852 14.207H15.0996C15.6113 14.1992 16.0137 14.0645 16.3066 13.8027C16.5996 13.541 16.7461 13.1875 16.7461 12.7422C16.7461 11.7422 16.248 11.2422 15.252 11.2422C14.7832 11.2422 14.4082 11.377 14.127 11.6465C13.8496 11.9121 13.7109 12.2656 13.7109 12.707H12.627C12.627 12.0312 12.873 11.4707 13.3652 11.0254C13.8613 10.5762 14.4902 10.3516 15.252 10.3516C16.0566 10.3516 16.6875 10.5645 17.1445 10.9902C17.6016 11.416 17.8301 12.0078 17.8301 12.7656C17.8301 13.1367 17.709 13.4961 17.4668 13.8438C17.2285 14.1914 16.9023 14.4512 16.4883 14.623C16.957 14.7715 17.3184 15.0176 17.5723 15.3613C17.8301 15.7051 17.959 16.125 17.959 16.6211C17.959 17.3867 17.709 17.9941 17.209 18.4434C16.709 18.8926 16.0586 19.1172 15.2578 19.1172C14.457 19.1172 13.8047 18.9004 13.3008 18.4668C12.8008 18.0332 12.5508 17.4609 12.5508 16.75H13.6406C13.6406 17.1992 13.7871 17.5586 14.0801 17.8281C14.373 18.0977 14.7656 18.2324 15.2578 18.2324C15.7812 18.2324 16.1816 18.0957 16.459 17.8223C16.7363 17.5488 16.875 17.1562 16.875 16.6445C16.875 16.1484 16.7227 15.7676 16.418 15.502C16.1133 15.2363 15.6738 15.0996 15.0996 15.0918H14.2852V14.207Z" fill="white"/>
<path d="M43.5 15C43.5 15.663 43.2366 16.2989 42.7678 16.7678C42.2989 17.2366 41.663 17.5 41 17.5C40.337 17.5 39.7011 17.2366 39.2322 16.7678C38.7634 16.2989 38.5 15.663 38.5 15C38.5 14.337 38.7634 13.7011 39.2322 13.2322C39.7011 12.7634 40.337 12.5 41 12.5C41.663 12.5 42.2989 12.7634 42.7678 13.2322C43.2366 13.7011 43.5 14.337 43.5 15Z" fill="#605E5C"/>
<path d="M33 15C33 15 36 9.5 41 9.5C46 9.5 49 15 49 15C49 15 46 20.5 41 20.5C36 20.5 33 15 33 15ZM41 18.5C41.9283 18.5 42.8185 18.1313 43.4749 17.4749C44.1313 16.8185 44.5 15.9283 44.5 15C44.5 14.0717 44.1313 13.1815 43.4749 12.5251C42.8185 11.8687 41.9283 11.5 41 11.5C40.0717 11.5 39.1815 11.8687 38.5251 12.5251C37.8687 13.1815 37.5 14.0717 37.5 15C37.5 15.9283 37.8687 16.8185 38.5251 17.4749C39.1815 18.1313 40.0717 18.5 41 18.5Z" fill="#605E5C"/>
</svg>
