<svg width="24" height="28" viewBox="0 0 24 28" fill="none" xmlns="http://www.w3.org/2000/svg">
<circle cx="18" cy="22" r="6" fill="#5E83BA"/>
<path d="M11.5 27L2 27C1.44772 27 1 26.5523 1 26L1 5C1 4.44772 1.44772 4 2 4L6.5 4L6.5 7L16.5 7L16.5 4L20.5 4C21.0523 4 21.5 4.44772 21.5 5L21.5 15" stroke="#5E83BA" stroke-width="2"/>
<path d="M6.5 4V2C6.5 1.44772 6.94772 1 7.5 1L15.5 1C16.0523 1 16.5 1.44772 16.5 2V4" stroke="#5E83BA" stroke-width="2"/>
<path d="M18 19V22.5L20.5 24.5" stroke="white" stroke-width="2"/>
</svg>
