<svg width="51" height="50" viewBox="0 0 51 50" fill="none" xmlns="http://www.w3.org/2000/svg">
<circle cx="25.2725" cy="25" r="25" fill="#3A4E7A"/>
<path d="M14.7793 26.0784V30.5872H12.1426V17.7903H17.1348C18.0957 17.7903 18.9395 17.9661 19.666 18.3176C20.3984 18.6692 20.9609 19.1702 21.3535 19.8206C21.7461 20.4651 21.9424 21.2004 21.9424 22.0266C21.9424 23.2805 21.5117 24.2708 20.6504 24.9973C19.7949 25.718 18.6084 26.0784 17.0908 26.0784H14.7793ZM14.7793 23.9426H17.1348C17.832 23.9426 18.3623 23.7786 18.7256 23.4504C19.0947 23.1223 19.2793 22.6536 19.2793 22.0442C19.2793 21.4172 19.0947 20.9104 18.7256 20.5237C18.3564 20.137 17.8467 19.9377 17.1963 19.926H14.7793V23.9426ZM27.207 17.7903L30.4941 27.0715L33.7637 17.7903H37.2266V30.5872H34.5811V27.0891L34.8447 21.051L31.3906 30.5872H29.5801L26.1348 21.0598L26.3984 27.0891V30.5872H23.7617V17.7903H27.207Z" fill="white"/>
</svg>
