<svg width="51" height="50" viewBox="0 0 51 50" fill="none" xmlns="http://www.w3.org/2000/svg">
<circle cx="25.2725" cy="25" r="25" fill="#3A4E7A"/>
<path d="M17.7793 26.3337V30.8425H15.1426V18.0457H20.1348C21.0957 18.0457 21.9395 18.2214 22.666 18.573C23.3984 18.9246 23.9609 19.4255 24.3535 20.0759C24.7461 20.7205 24.9424 21.4558 24.9424 22.282C24.9424 23.5359 24.5117 24.5261 23.6504 25.2527C22.7949 25.9734 21.6084 26.3337 20.0908 26.3337H17.7793ZM17.7793 24.198H20.1348C20.832 24.198 21.3623 24.0339 21.7256 23.7058C22.0947 23.3777 22.2793 22.9089 22.2793 22.2996C22.2793 21.6726 22.0947 21.1658 21.7256 20.7791C21.3564 20.3923 20.8467 20.1931 20.1963 20.1814H17.7793V24.198ZM36.3945 20.1814H32.4746V30.8425H29.8379V20.1814H25.9707V18.0457H36.3945V20.1814Z" fill="white"/>
</svg>
