<svg width="51" height="50" viewBox="0 0 51 50" fill="none" xmlns="http://www.w3.org/2000/svg">
<circle cx="25.2725" cy="25" r="25" fill="#3A4E7A"/>
<path d="M16.1992 26.9902V32H13.2695V17.7812H18.8164C19.8841 17.7812 20.8216 17.9766 21.6289 18.3672C22.4427 18.7578 23.0677 19.3145 23.5039 20.0371C23.9401 20.7533 24.1582 21.5703 24.1582 22.4883C24.1582 23.8815 23.6797 24.9818 22.7227 25.7891C21.7721 26.5898 20.4538 26.9902 18.7676 26.9902H16.1992ZM16.1992 24.6172H18.8164C19.5911 24.6172 20.1803 24.4349 20.584 24.0703C20.9941 23.7057 21.1992 23.1849 21.1992 22.5078C21.1992 21.8112 20.9941 21.248 20.584 20.8184C20.1738 20.3887 19.6074 20.1673 18.8848 20.1543H16.1992V24.6172ZM31.4336 28.4746L34.6562 17.7812H37.918L32.9668 32H29.9102L24.9785 17.7812H28.2305L31.4336 28.4746Z" fill="white"/>
</svg>
