<svg width="96" height="24" viewBox="0 0 96 24" fill="none" xmlns="http://www.w3.org/2000/svg">
<path d="M33.8057 12.9736H31.4678V17H30.1484V7.04688H33.4434C34.5645 7.04688 35.4258 7.30208 36.0273 7.8125C36.6335 8.32292 36.9365 9.06576 36.9365 10.041C36.9365 10.6608 36.7679 11.2008 36.4307 11.6611C36.098 12.1214 35.6331 12.4655 35.0361 12.6934L37.374 16.918V17H35.9658L33.8057 12.9736ZM31.4678 11.9004H33.4844C34.1361 11.9004 34.6533 11.7318 35.0361 11.3945C35.4235 11.0573 35.6172 10.6061 35.6172 10.041C35.6172 9.42578 35.4326 8.9541 35.0635 8.62598C34.6989 8.29785 34.1702 8.13151 33.4775 8.12695H31.4678V11.9004ZM41.6533 17.1367C40.6507 17.1367 39.835 16.8086 39.2061 16.1523C38.5771 15.4915 38.2627 14.6097 38.2627 13.5068V13.2744C38.2627 12.5407 38.4017 11.8867 38.6797 11.3125C38.9622 10.7337 39.3542 10.2826 39.8555 9.95898C40.3613 9.63086 40.9082 9.4668 41.4961 9.4668C42.4577 9.4668 43.2051 9.78353 43.7383 10.417C44.2715 11.0505 44.5381 11.9574 44.5381 13.1377V13.6641H39.5273C39.5456 14.3932 39.7575 14.9834 40.1631 15.4346C40.5732 15.8812 41.0928 16.1045 41.7217 16.1045C42.1683 16.1045 42.5465 16.0133 42.8564 15.8311C43.1663 15.6488 43.4375 15.4072 43.6699 15.1064L44.4424 15.708C43.8226 16.6605 42.8929 17.1367 41.6533 17.1367ZM41.4961 10.5059C40.9857 10.5059 40.5573 10.6927 40.2109 11.0664C39.8646 11.4355 39.6504 11.9551 39.5684 12.625H43.2734V12.5293C43.237 11.8867 43.0638 11.39 42.7539 11.0391C42.444 10.6836 42.0247 10.5059 41.4961 10.5059ZM50.3145 15.0381C50.3145 14.6963 50.1846 14.432 49.9248 14.2451C49.6696 14.0537 49.2207 13.8896 48.5781 13.7529C47.9401 13.6162 47.432 13.4521 47.0537 13.2607C46.68 13.0693 46.402 12.8415 46.2197 12.5771C46.042 12.3128 45.9531 11.9984 45.9531 11.6338C45.9531 11.0277 46.2083 10.515 46.7188 10.0957C47.2337 9.67643 47.89 9.4668 48.6875 9.4668C49.526 9.4668 50.2051 9.68327 50.7246 10.1162C51.2487 10.5492 51.5107 11.1029 51.5107 11.7773H50.2393C50.2393 11.431 50.0911 11.1325 49.7949 10.8818C49.5033 10.6312 49.1341 10.5059 48.6875 10.5059C48.2272 10.5059 47.8672 10.6061 47.6074 10.8066C47.3477 11.0072 47.2178 11.2692 47.2178 11.5928C47.2178 11.8981 47.3385 12.1283 47.5801 12.2832C47.8216 12.4382 48.2568 12.5863 48.8857 12.7275C49.5192 12.8688 50.0319 13.0374 50.4238 13.2334C50.8158 13.4294 51.1051 13.6663 51.292 13.9443C51.4834 14.2178 51.5791 14.5527 51.5791 14.9492C51.5791 15.61 51.3148 16.141 50.7861 16.542C50.2575 16.9385 49.5716 17.1367 48.7285 17.1367C48.1361 17.1367 47.612 17.0319 47.1562 16.8223C46.7005 16.6126 46.3428 16.321 46.083 15.9473C45.8278 15.569 45.7002 15.1611 45.7002 14.7236H46.9648C46.9876 15.1475 47.1562 15.4847 47.4707 15.7354C47.7897 15.9814 48.209 16.1045 48.7285 16.1045C49.207 16.1045 49.5898 16.0088 49.877 15.8174C50.1686 15.6214 50.3145 15.3617 50.3145 15.0381ZM59.4746 13.3838C59.4746 14.5094 59.2171 15.4163 58.7021 16.1045C58.1872 16.7926 57.4899 17.1367 56.6104 17.1367C55.7126 17.1367 55.0062 16.8519 54.4912 16.2822V19.8438H53.2266V9.60352H54.3818L54.4434 10.4238C54.9583 9.78581 55.6738 9.4668 56.5898 9.4668C57.4785 9.4668 58.1803 9.80176 58.6953 10.4717C59.2148 11.1416 59.4746 12.0736 59.4746 13.2676V13.3838ZM58.21 13.2402C58.21 12.4062 58.0322 11.7477 57.6768 11.2646C57.3213 10.7816 56.8337 10.54 56.2139 10.54C55.4482 10.54 54.874 10.8796 54.4912 11.5586V15.0928C54.8695 15.7673 55.4482 16.1045 56.2275 16.1045C56.8337 16.1045 57.3145 15.8652 57.6699 15.3867C58.0299 14.9036 58.21 14.1882 58.21 13.2402ZM65.6543 16.2686C65.1621 16.8473 64.4398 17.1367 63.4873 17.1367C62.6989 17.1367 62.0973 16.9089 61.6826 16.4531C61.2725 15.9928 61.0651 15.3138 61.0605 14.416V9.60352H62.3252V14.3818C62.3252 15.5029 62.7809 16.0635 63.6924 16.0635C64.6585 16.0635 65.3011 15.7035 65.6201 14.9834V9.60352H66.8848V17H65.6816L65.6543 16.2686ZM71.8818 17.1367C70.8792 17.1367 70.0635 16.8086 69.4346 16.1523C68.8057 15.4915 68.4912 14.6097 68.4912 13.5068V13.2744C68.4912 12.5407 68.6302 11.8867 68.9082 11.3125C69.1908 10.7337 69.5827 10.2826 70.084 9.95898C70.5898 9.63086 71.1367 9.4668 71.7246 9.4668C72.6862 9.4668 73.4336 9.78353 73.9668 10.417C74.5 11.0505 74.7666 11.9574 74.7666 13.1377V13.6641H69.7559C69.7741 14.3932 69.986 14.9834 70.3916 15.4346C70.8018 15.8812 71.3213 16.1045 71.9502 16.1045C72.3968 16.1045 72.7751 16.0133 73.085 15.8311C73.3949 15.6488 73.666 15.4072 73.8984 15.1064L74.6709 15.708C74.0511 16.6605 73.1214 17.1367 71.8818 17.1367ZM71.7246 10.5059C71.2142 10.5059 70.7858 10.6927 70.4395 11.0664C70.0931 11.4355 69.8789 11.9551 69.7969 12.625H73.502V12.5293C73.4655 11.8867 73.2923 11.39 72.9824 11.0391C72.6725 10.6836 72.2533 10.5059 71.7246 10.5059ZM80.543 15.0381C80.543 14.6963 80.4131 14.432 80.1533 14.2451C79.8981 14.0537 79.4492 13.8896 78.8066 13.7529C78.1686 13.6162 77.6605 13.4521 77.2822 13.2607C76.9085 13.0693 76.6305 12.8415 76.4482 12.5771C76.2705 12.3128 76.1816 11.9984 76.1816 11.6338C76.1816 11.0277 76.4368 10.515 76.9473 10.0957C77.4622 9.67643 78.1185 9.4668 78.916 9.4668C79.7546 9.4668 80.4336 9.68327 80.9531 10.1162C81.4772 10.5492 81.7393 11.1029 81.7393 11.7773H80.4678C80.4678 11.431 80.3197 11.1325 80.0234 10.8818C79.7318 10.6312 79.3626 10.5059 78.916 10.5059C78.4557 10.5059 78.0957 10.6061 77.8359 10.8066C77.5762 11.0072 77.4463 11.2692 77.4463 11.5928C77.4463 11.8981 77.5671 12.1283 77.8086 12.2832C78.0501 12.4382 78.4854 12.5863 79.1143 12.7275C79.7477 12.8688 80.2604 13.0374 80.6523 13.2334C81.0443 13.4294 81.3337 13.6663 81.5205 13.9443C81.7119 14.2178 81.8076 14.5527 81.8076 14.9492C81.8076 15.61 81.5433 16.141 81.0146 16.542C80.486 16.9385 79.8001 17.1367 78.957 17.1367C78.3646 17.1367 77.8405 17.0319 77.3848 16.8223C76.929 16.6126 76.5713 16.321 76.3115 15.9473C76.0563 15.569 75.9287 15.1611 75.9287 14.7236H77.1934C77.2161 15.1475 77.3848 15.4847 77.6992 15.7354C78.0182 15.9814 78.4375 16.1045 78.957 16.1045C79.4355 16.1045 79.8184 16.0088 80.1055 15.8174C80.3971 15.6214 80.543 15.3617 80.543 15.0381ZM85.1709 7.8125V9.60352H86.5518V10.5811H85.1709V15.168C85.1709 15.4642 85.2324 15.6875 85.3555 15.8379C85.4785 15.9837 85.6882 16.0566 85.9844 16.0566C86.1302 16.0566 86.3307 16.0293 86.5859 15.9746V17C86.2533 17.0911 85.9297 17.1367 85.6152 17.1367C85.0501 17.1367 84.624 16.9658 84.3369 16.624C84.0498 16.2822 83.9062 15.7969 83.9062 15.168V10.5811H82.5596V9.60352H83.9062V7.8125H85.1709ZM92.6016 17C92.5286 16.8542 92.4694 16.5944 92.4238 16.2207C91.8359 16.8314 91.1341 17.1367 90.3184 17.1367C89.5892 17.1367 88.9899 16.9316 88.5205 16.5215C88.0557 16.1068 87.8232 15.5827 87.8232 14.9492C87.8232 14.179 88.1149 13.582 88.6982 13.1582C89.2861 12.7298 90.111 12.5156 91.1729 12.5156H92.4033V11.9346C92.4033 11.4925 92.2712 11.1416 92.0068 10.8818C91.7425 10.6175 91.3529 10.4854 90.8379 10.4854C90.3867 10.4854 90.0085 10.5993 89.7031 10.8271C89.3978 11.055 89.2451 11.3307 89.2451 11.6543H87.9736C87.9736 11.2852 88.1035 10.9297 88.3633 10.5879C88.6276 10.2415 88.9831 9.9681 89.4297 9.76758C89.8809 9.56706 90.3753 9.4668 90.9131 9.4668C91.7653 9.4668 92.4329 9.68099 92.916 10.1094C93.3991 10.5332 93.6497 11.1188 93.668 11.8662V15.2705C93.668 15.9495 93.7546 16.4896 93.9277 16.8906V17H92.6016ZM90.5029 16.0361C90.8994 16.0361 91.2754 15.9336 91.6309 15.7285C91.9863 15.5234 92.2438 15.2568 92.4033 14.9287V13.4111H91.4121C89.8626 13.4111 89.0879 13.8646 89.0879 14.7715C89.0879 15.168 89.2201 15.4779 89.4844 15.7012C89.7487 15.9245 90.0882 16.0361 90.5029 16.0361Z" fill="#605E5C"/>
<path fill-rule="evenodd" clip-rule="evenodd" d="M14.6754 1.05402C14.8725 0.986374 15.0859 0.982008 15.2856 1.04153C15.4853 1.10106 15.6615 1.2215 15.7894 1.38602L22.7894 10.386C22.926 10.5616 23.0001 10.7776 23.0001 11C23.0001 11.2224 22.926 11.4385 22.7894 11.614L15.7894 20.614C15.6614 20.7784 15.4853 20.8987 15.2857 20.9581C15.086 21.0175 14.8728 21.0131 14.6758 20.9455C14.4788 20.8779 14.3078 20.7504 14.1867 20.5809C14.0656 20.4114 14.0005 20.2083 14.0004 20V16.01C8.62142 16.122 6.03742 17.143 4.73942 18.253C3.50542 19.308 3.27942 20.549 3.04442 21.849L2.98342 22.184C2.93854 22.4237 2.80762 22.6388 2.61528 22.7887C2.42294 22.9386 2.18244 23.0131 1.93902 22.9981C1.69561 22.9831 1.46607 22.8797 1.29358 22.7073C1.12109 22.5349 1.01754 22.3054 1.00242 22.062C0.830418 19.314 1.08842 15.332 3.02942 12.001C4.91342 8.76802 8.30542 6.28202 14.0004 6.02202V2.00002C14.0004 1.79167 14.0654 1.58851 14.1864 1.4189C14.3074 1.2493 14.4784 1.12173 14.6754 1.05402Z" fill="#5E83BA"/>
</svg>
