<svg width="24" height="24" viewBox="0 0 24 24" fill="none" xmlns="http://www.w3.org/2000/svg">
<path fill-rule="evenodd" clip-rule="evenodd" d="M14.6754 1.0539C14.8725 0.986252 15.0859 0.981886 15.2856 1.04141C15.4853 1.10093 15.6615 1.22138 15.7894 1.3859L22.7894 10.3859C22.926 10.5614 23.0001 10.7775 23.0001 10.9999C23.0001 11.2223 22.926 11.4384 22.7894 11.6139L15.7894 20.6139C15.6614 20.7782 15.4853 20.8985 15.2857 20.958C15.086 21.0174 14.8728 21.013 14.6758 20.9454C14.4788 20.8777 14.3078 20.7503 14.1867 20.5808C14.0656 20.4113 14.0005 20.2082 14.0004 19.9999V16.0099C8.62142 16.1219 6.03742 17.1429 4.73942 18.2529C3.50542 19.3079 3.27942 20.5489 3.04442 21.8489L2.98342 22.1839C2.93854 22.4236 2.80762 22.6387 2.61528 22.7886C2.42294 22.9385 2.18244 23.013 1.93902 22.998C1.69561 22.983 1.46607 22.8796 1.29358 22.7072C1.12109 22.5348 1.01754 22.3053 1.00242 22.0619C0.830418 19.3139 1.08842 15.3319 3.02942 12.0009C4.91342 8.7679 8.30542 6.2819 14.0004 6.0219V1.9999C14.0004 1.79155 14.0654 1.58838 14.1864 1.41878C14.3074 1.24918 14.4784 1.12161 14.6754 1.0539Z" fill="#5E83BA"/>
</svg>
