<svg width="248" height="77" viewBox="0 0 248 77" fill="none" xmlns="http://www.w3.org/2000/svg">
<path d="M0 13C0 5.8203 5.8203 0 13 0H235C242.18 0 248 5.8203 248 13V50C248 57.1797 242.18 63 235 63H137.5L122.75 77L108 63H13C5.8203 63 0 57.1797 0 50V13Z" fill="#49556A"/>
<path d="M138.896 20H121.104C120.494 20 120 20.494 120 21.104V38.897C120 39.506 120.494 40 121.104 40H130.684V32.255H128.076V29.237H130.682V27.01C130.682 24.427 132.26 23.02 134.565 23.02C135.669 23.02 136.617 23.102 136.894 23.139V25.839H135.296C134.042 25.839 133.8 26.436 133.8 27.309V29.237H136.789L136.399 32.255H133.799V40H138.897C139.505 40 139.999 39.506 139.999 38.896V21.104C140 20.494 139.506 20 138.896 20Z" fill="white"/>
<path d="M203 20C197.478 20 193 24.477 193 30C193 34.237 195.636 37.855 199.356 39.312C199.268 38.521 199.189 37.307 199.391 36.444C199.573 35.664 200.563 31.474 200.563 31.474C200.563 31.474 200.264 30.874 200.264 29.988C200.264 28.598 201.07 27.56 202.074 27.56C202.926 27.56 203.338 28.2 203.338 28.968C203.338 29.826 202.793 31.108 202.51 32.298C202.274 33.293 203.01 34.105 203.99 34.105C205.768 34.105 207.134 32.231 207.134 29.525C207.134 27.132 205.414 25.457 202.957 25.457C200.112 25.457 198.442 27.592 198.442 29.797C198.442 30.656 198.773 31.578 199.187 32.078C199.222 32.1159 199.247 32.1624 199.26 32.2129C199.272 32.2634 199.27 32.3161 199.256 32.366L198.978 33.499C198.934 33.682 198.833 33.722 198.643 33.633C197.394 33.052 196.613 31.226 196.613 29.759C196.613 26.605 198.905 23.707 203.221 23.707C206.69 23.707 209.386 26.18 209.386 29.483C209.386 32.93 207.213 35.703 204.196 35.703C203.183 35.703 202.231 35.178 201.905 34.555L201.282 36.933C201.056 37.802 200.447 38.891 200.038 39.554C200.975 39.844 201.969 40 203 40C208.522 40 213 35.523 213 30C213 24.477 208.522 20 203 20Z" fill="white"/>
<path d="M177 25.172C176.251 25.504 175.457 25.7217 174.643 25.818C175.5 25.3056 176.141 24.4987 176.447 23.548C175.642 24.0259 174.761 24.3628 173.842 24.544C173.458 24.1343 172.994 23.8078 172.479 23.5848C171.964 23.3619 171.408 23.2472 170.847 23.248C168.197 23.248 166.251 25.72 166.849 28.285C165.218 28.2036 163.622 27.78 162.165 27.0418C160.708 26.3036 159.422 25.2672 158.392 24C157.868 24.9035 157.707 25.9727 157.943 26.9903C158.179 28.0078 158.794 28.8974 159.662 29.478C159.011 29.4576 158.374 29.2817 157.804 28.965C157.759 30.865 159.122 32.644 161.095 33.04C160.491 33.2041 159.857 33.228 159.242 33.11C159.504 33.9253 160.014 34.6382 160.702 35.1491C161.389 35.6599 162.219 35.9431 163.075 35.959C161.355 37.3077 159.17 37.9188 157 37.658C158.876 38.8634 161.06 39.5032 163.29 39.501C170.908 39.501 175.212 33.067 174.953 27.296C175.756 26.715 176.449 25.9958 177 25.172Z" fill="white"/>
<path d="M39.634 35.21C40.3293 35.21 40.9687 35.0933 41.552 34.86C42.14 34.6267 42.6113 34.2813 42.966 33.824C43.3207 33.3667 43.498 32.7997 43.498 32.123C43.498 31.633 43.407 31.227 43.225 30.905C43.043 30.5783 42.812 30.317 42.532 30.121C42.2567 29.925 41.9697 29.7733 41.671 29.666C41.377 29.554 41.1133 29.4653 40.88 29.4L39.018 28.875C38.78 28.8097 38.5397 28.728 38.297 28.63C38.059 28.5273 37.8583 28.3897 37.695 28.217C37.5317 28.0443 37.45 27.818 37.45 27.538C37.45 27.2487 37.541 26.9967 37.723 26.782C37.9097 26.5627 38.157 26.3923 38.465 26.271C38.7777 26.1497 39.1207 26.0937 39.494 26.103C40.0727 26.1077 40.5837 26.2733 41.027 26.6C41.475 26.922 41.7527 27.3677 41.86 27.937L43.428 27.671C43.2227 26.7423 42.7747 26.0213 42.084 25.508C41.3933 24.99 40.537 24.7263 39.515 24.717C38.8383 24.7123 38.227 24.822 37.681 25.046C37.135 25.27 36.701 25.5967 36.379 26.026C36.0617 26.4553 35.903 26.9827 35.903 27.608C35.903 28.1493 36.0173 28.588 36.246 28.924C36.4747 29.26 36.7593 29.5213 37.1 29.708C37.4453 29.8947 37.786 30.037 38.122 30.135L40.705 30.898C41.0783 31.01 41.3817 31.1687 41.615 31.374C41.853 31.5747 41.972 31.857 41.972 32.221C41.972 32.557 41.867 32.8463 41.657 33.089C41.4517 33.327 41.1787 33.5113 40.838 33.642C40.4973 33.768 40.124 33.831 39.718 33.831C39.0647 33.831 38.493 33.6607 38.003 33.32C37.513 32.9793 37.191 32.4987 37.037 31.878L35.511 32.109C35.623 32.7483 35.8657 33.3013 36.239 33.768C36.6123 34.23 37.0907 34.587 37.674 34.839C38.2573 35.0863 38.9107 35.21 39.634 35.21ZM47.7925 35H49.2555V30.646H54.2955V35H55.7655V24.92H54.2955V29.267H49.2555V24.92H47.7925V35ZM59.8347 35H61.3537L62.0887 32.725H66.2257L66.9747 35H68.4937L65.2177 24.92H63.1107L59.8347 35ZM62.5367 31.353L64.1467 26.383L65.7777 31.353H62.5367ZM72.5523 35H74.0153V31.381H76.6893L78.4463 35H80.1193L78.2153 31.094C78.7893 30.8467 79.2186 30.4617 79.5033 29.939C79.7879 29.4163 79.9303 28.819 79.9303 28.147C79.9303 27.3303 79.7203 26.6303 79.3003 26.047C78.8803 25.4637 78.2479 25.1067 77.4033 24.976C77.2726 24.9527 77.1349 24.9387 76.9903 24.934C76.8456 24.9247 76.7243 24.92 76.6263 24.92H72.5523V35ZM74.0153 29.995V26.299H76.5703C76.6636 26.299 76.7663 26.3037 76.8783 26.313C76.9949 26.3223 77.1046 26.341 77.2073 26.369C77.6553 26.4717 77.9726 26.7003 78.1593 27.055C78.3459 27.4097 78.4393 27.7737 78.4393 28.147C78.4393 28.5157 78.3459 28.8797 78.1593 29.239C77.9726 29.5937 77.6553 29.8247 77.2073 29.932C77.1046 29.9553 76.9949 29.9717 76.8783 29.981C76.7663 29.9903 76.6636 29.995 76.5703 29.995H74.0153ZM87.2632 35H93.7032V33.621H88.7262V30.506H92.8632V29.127H88.7262V26.299H93.7032V24.92H87.2632V35Z" fill="#8490A6"/>
</svg>
