<svg width="327" height="63" viewBox="0 0 327 63" fill="none" xmlns="http://www.w3.org/2000/svg">
<path d="M0 0H327V50C327 57.1797 321.18 63 314 63H13C5.8203 63 0 57.1797 0 50V0Z" fill="#49556A"/>
<path d="M136.896 21H119.104C118.494 21 118 21.494 118 22.104V39.897C118 40.506 118.494 41 119.104 41H128.684V33.255H126.076V30.237H128.682V28.01C128.682 25.427 130.26 24.02 132.565 24.02C133.669 24.02 134.617 24.102 134.894 24.139V26.839H133.296C132.042 26.839 131.8 27.436 131.8 28.309V30.237H134.789L134.399 33.255H131.799V41H136.897C137.505 41 137.999 40.506 137.999 39.896V22.104C138 21.494 137.506 21 136.896 21Z" fill="white"/>
<path d="M201 21C195.478 21 191 25.477 191 31C191 35.237 193.636 38.855 197.356 40.312C197.268 39.521 197.189 38.307 197.391 37.444C197.573 36.664 198.563 32.474 198.563 32.474C198.563 32.474 198.264 31.874 198.264 30.988C198.264 29.598 199.07 28.56 200.074 28.56C200.926 28.56 201.338 29.2 201.338 29.968C201.338 30.826 200.793 32.108 200.51 33.298C200.274 34.293 201.01 35.105 201.99 35.105C203.768 35.105 205.134 33.231 205.134 30.525C205.134 28.132 203.414 26.457 200.957 26.457C198.112 26.457 196.442 28.592 196.442 30.797C196.442 31.656 196.773 32.578 197.187 33.078C197.222 33.1159 197.247 33.1624 197.26 33.2129C197.272 33.2634 197.27 33.3161 197.256 33.366L196.978 34.499C196.934 34.682 196.833 34.722 196.643 34.633C195.394 34.052 194.613 32.226 194.613 30.759C194.613 27.605 196.905 24.707 201.221 24.707C204.69 24.707 207.386 27.18 207.386 30.483C207.386 33.93 205.213 36.703 202.196 36.703C201.183 36.703 200.231 36.178 199.905 35.555L199.282 37.933C199.056 38.802 198.447 39.891 198.038 40.554C198.975 40.844 199.969 41 201 41C206.522 41 211 36.523 211 31C211 25.477 206.522 21 201 21Z" fill="white"/>
<path d="M175 26.172C174.251 26.504 173.457 26.7217 172.643 26.818C173.5 26.3056 174.141 25.4987 174.447 24.548C173.642 25.0259 172.761 25.3628 171.842 25.544C171.458 25.1343 170.994 24.8078 170.479 24.5848C169.964 24.3619 169.408 24.2472 168.847 24.248C166.197 24.248 164.251 26.72 164.849 29.285C163.218 29.2036 161.622 28.78 160.165 28.0418C158.708 27.3036 157.422 26.2672 156.392 25C155.868 25.9035 155.707 26.9727 155.943 27.9903C156.179 29.0078 156.794 29.8974 157.662 30.478C157.011 30.4576 156.374 30.2817 155.804 29.965C155.759 31.865 157.122 33.644 159.095 34.04C158.491 34.2041 157.857 34.228 157.242 34.11C157.504 34.9253 158.014 35.6382 158.702 36.1491C159.389 36.6599 160.219 36.9431 161.075 36.959C159.355 38.3077 157.17 38.9188 155 38.658C156.876 39.8634 159.06 40.5032 161.29 40.501C168.908 40.501 173.212 34.067 172.953 28.296C173.756 27.715 174.449 26.9958 175 26.172Z" fill="white"/>
<path d="M37.965 37.225C38.71 37.225 39.395 37.1 40.02 36.85C40.65 36.6 41.155 36.23 41.535 35.74C41.915 35.25 42.105 34.6425 42.105 33.9175C42.105 33.3925 42.0075 32.9575 41.8125 32.6125C41.6175 32.2625 41.37 31.9825 41.07 31.7725C40.775 31.5625 40.4675 31.4 40.1475 31.285C39.8325 31.165 39.55 31.07 39.3 31L37.305 30.4375C37.05 30.3675 36.7925 30.28 36.5325 30.175C36.2775 30.065 36.0625 29.9175 35.8875 29.7325C35.7125 29.5475 35.625 29.305 35.625 29.005C35.625 28.695 35.7225 28.425 35.9175 28.195C36.1175 27.96 36.3825 27.7775 36.7125 27.6475C37.0475 27.5175 37.415 27.4575 37.815 27.4675C38.435 27.4725 38.9825 27.65 39.4575 28C39.9375 28.345 40.235 28.8225 40.35 29.4325L42.03 29.1475C41.81 28.1525 41.33 27.38 40.59 26.83C39.85 26.275 38.9325 25.9925 37.8375 25.9825C37.1125 25.9775 36.4575 26.095 35.8725 26.335C35.2875 26.575 34.8225 26.925 34.4775 27.385C34.1375 27.845 33.9675 28.41 33.9675 29.08C33.9675 29.66 34.09 30.13 34.335 30.49C34.58 30.85 34.885 31.13 35.25 31.33C35.62 31.53 35.985 31.6825 36.345 31.7875L39.1125 32.605C39.5125 32.725 39.8375 32.895 40.0875 33.115C40.3425 33.33 40.47 33.6325 40.47 34.0225C40.47 34.3825 40.3575 34.6925 40.1325 34.9525C39.9125 35.2075 39.62 35.405 39.255 35.545C38.89 35.68 38.49 35.7475 38.055 35.7475C37.355 35.7475 36.7425 35.565 36.2175 35.2C35.6925 34.835 35.3475 34.32 35.1825 33.655L33.5475 33.9025C33.6675 34.5875 33.9275 35.18 34.3275 35.68C34.7275 36.175 35.24 36.5575 35.865 36.8275C36.49 37.0925 37.19 37.225 37.965 37.225ZM46.7063 37H48.2738V32.335H53.6738V37H55.2488V26.2H53.6738V30.8575H48.2738V26.2H46.7063V37ZM59.6086 37H61.2361L62.0236 34.5625H66.4561L67.2586 37H68.8861L65.3761 26.2H63.1186L59.6086 37ZM62.5036 33.0925L64.2286 27.7675L65.9761 33.0925H62.5036ZM73.2346 37H74.8021V33.1225H77.6671L79.5496 37H81.3421L79.3021 32.815C79.9171 32.55 80.3771 32.1375 80.6821 31.5775C80.9871 31.0175 81.1396 30.3775 81.1396 29.6575C81.1396 28.7825 80.9146 28.0325 80.4646 27.4075C80.0146 26.7825 79.3371 26.4 78.4321 26.26C78.2921 26.235 78.1446 26.22 77.9896 26.215C77.8346 26.205 77.7046 26.2 77.5996 26.2H73.2346V37ZM74.8021 31.6375V27.6775H77.5396C77.6396 27.6775 77.7496 27.6825 77.8696 27.6925C77.9946 27.7025 78.1121 27.7225 78.2221 27.7525C78.7021 27.8625 79.0421 28.1075 79.2421 28.4875C79.4421 28.8675 79.5421 29.2575 79.5421 29.6575C79.5421 30.0525 79.4421 30.4425 79.2421 30.8275C79.0421 31.2075 78.7021 31.455 78.2221 31.57C78.1121 31.595 77.9946 31.6125 77.8696 31.6225C77.7496 31.6325 77.6396 31.6375 77.5396 31.6375H74.8021ZM88.9963 37H95.8963V35.5225H90.5638V32.185H94.9963V30.7075H90.5638V27.6775H95.8963V26.2H88.9963V37Z" fill="#8490A6"/>
<circle cx="281.5" cy="31.5" r="16.5" fill="#6E7E97"/>
<path d="M289 31.481L282.766 25V28.866H281.441C277.33 28.866 274 32.025 274 35.922V37.971L274.589 37.359C276.59 35.28 279.422 34.096 282.39 34.096H282.765V37.963L289 31.481Z" fill="white"/>
</svg>
